M48
INCH,TZ
T1C0.0157
T2C0.0300
T3C0.0315
T4C0.0354
T5C0.0394
T6C0.0598
%
G90
G05
T1
X19750Y-24550
X20275Y-34700
X22225Y-30900
X22375Y-21725
X23700Y-27450
X28525Y-29950
X28575Y-36800
X29075Y-25725
X32125Y-36775
X32500Y-29850
X32975Y-28750
X37100Y-30925
X41450Y-36875
X42450Y-31350
X43050Y-28925
X44525Y-34850
X44675Y-26325
T2
X31775Y-21750
X31775Y-25575
X37975Y-21725
X37975Y-25575
T3
X20350Y-26025
X20350Y-27025
X20350Y-28025
X20350Y-29025
X20350Y-30025
X20350Y-31025
X20350Y-32025
X20350Y-33025
X25350Y-26025
X25350Y-27025
X25350Y-28025
X25350Y-29025
X25350Y-30025
X25350Y-31025
X25350Y-32025
X25350Y-33025
X42556Y-25000
X44525Y-25000
T4
X27300Y-29925
X30300Y-29925
X34875Y-29025
X37875Y-29025
T5
X39407Y-25051
X40392Y-23082
X41376Y-25051
X28137Y-27062
X28137Y-33062
X29137Y-27062
X29137Y-33062
X30137Y-27062
X30137Y-33062
X31137Y-27062
X31137Y-33062
X32137Y-27062
X32137Y-33062
X33137Y-27062
X33137Y-33062
X34137Y-27062
X34137Y-33062
X35137Y-27062
X35137Y-33062
X36137Y-27062
X36137Y-33062
X37137Y-27062
X37137Y-33062
X38137Y-27062
X38137Y-33062
X39137Y-27062
X39137Y-33062
X40137Y-27062
X40137Y-33062
X41137Y-27062
X41137Y-33062
X42137Y-27062
X42137Y-33062
T6
X31253Y-35675
X33253Y-35675
X23261Y-35675
X25261Y-35675
X23650Y-23275
X25650Y-23275
X39253Y-35675
X41253Y-35675
X27253Y-35675
X29253Y-35675
X27650Y-23275
X29650Y-23275
X35253Y-35675
X37253Y-35675
T0
M30
