%TF.GenerationSoftware,KiCad,Pcbnew,(5.1.6)-1*%
%TF.CreationDate,2021-06-26T17:30:22+02:00*%
%TF.ProjectId,turnTableDriver,7475726e-5461-4626-9c65-447269766572,rev?*%
%TF.SameCoordinates,Original*%
%TF.FileFunction,Copper,L2,Bot*%
%TF.FilePolarity,Positive*%
%FSLAX46Y46*%
G04 Gerber Fmt 4.6, Leading zero omitted, Abs format (unit mm)*
G04 Created by KiCad (PCBNEW (5.1.6)-1) date 2021-06-26 17:30:22*
%MOMM*%
%LPD*%
G01*
G04 APERTURE LIST*
%TA.AperFunction,ComponentPad*%
%ADD10C,1.600000*%
%TD*%
%TA.AperFunction,ComponentPad*%
%ADD11C,1.550000*%
%TD*%
%TA.AperFunction,ComponentPad*%
%ADD12R,1.550000X1.550000*%
%TD*%
%TA.AperFunction,ComponentPad*%
%ADD13C,3.000000*%
%TD*%
%TA.AperFunction,ComponentPad*%
%ADD14R,3.000000X3.000000*%
%TD*%
%TA.AperFunction,ComponentPad*%
%ADD15C,1.524000*%
%TD*%
%TA.AperFunction,ComponentPad*%
%ADD16O,1.800000X1.800000*%
%TD*%
%TA.AperFunction,ComponentPad*%
%ADD17R,1.800000X1.800000*%
%TD*%
%TA.AperFunction,ComponentPad*%
%ADD18O,1.600000X1.600000*%
%TD*%
%TA.AperFunction,ComponentPad*%
%ADD19R,1.600000X1.600000*%
%TD*%
%TA.AperFunction,ViaPad*%
%ADD20C,0.800000*%
%TD*%
%TA.AperFunction,Conductor*%
%ADD21C,0.250000*%
%TD*%
%TA.AperFunction,Conductor*%
%ADD22C,0.700000*%
%TD*%
%TA.AperFunction,Conductor*%
%ADD23C,0.254000*%
%TD*%
G04 APERTURE END LIST*
D10*
%TO.P,C1,2*%
%TO.N,GND*%
X108093500Y-63500000D03*
%TO.P,C1,1*%
%TO.N,Net-(A1-Pad19)*%
X113093500Y-63500000D03*
%TD*%
D11*
%TO.P,RV1,2*%
%TO.N,Net-(A1-Pad19)*%
X102595000Y-58629500D03*
D12*
%TO.P,RV1,1*%
%TO.N,GND*%
X105095000Y-63629500D03*
D11*
%TO.P,RV1,3*%
%TO.N,+5V*%
X100095000Y-63629500D03*
%TD*%
D13*
%TO.P,J7,2*%
%TO.N,Net-(A2-Pad6)*%
X75311000Y-59118500D03*
D14*
%TO.P,J7,1*%
%TO.N,Net-(A2-Pad5)*%
X70231000Y-59118500D03*
%TD*%
D13*
%TO.P,J6,2*%
%TO.N,Net-(A2-Pad4)*%
X65151000Y-59118500D03*
D14*
%TO.P,J6,1*%
%TO.N,Net-(A2-Pad3)*%
X60071000Y-59118500D03*
%TD*%
D13*
%TO.P,J5,2*%
%TO.N,GND*%
X59082000Y-90614500D03*
D14*
%TO.P,J5,1*%
%TO.N,+12V*%
X64162000Y-90614500D03*
%TD*%
D13*
%TO.P,J4,2*%
%TO.N,/sensor*%
X99703000Y-90614500D03*
D14*
%TO.P,J4,1*%
%TO.N,/5v*%
X104783000Y-90614500D03*
%TD*%
D13*
%TO.P,J3,2*%
%TO.N,GND*%
X89543000Y-90614500D03*
D14*
%TO.P,J3,1*%
X94623000Y-90614500D03*
%TD*%
D13*
%TO.P,J2,2*%
%TO.N,/CCW*%
X79383000Y-90614500D03*
D14*
%TO.P,J2,1*%
%TO.N,/CW*%
X84463000Y-90614500D03*
%TD*%
D13*
%TO.P,J1,2*%
%TO.N,/mode*%
X69223000Y-90614500D03*
D14*
%TO.P,J1,1*%
%TO.N,/store*%
X74303000Y-90614500D03*
%TD*%
D15*
%TO.P,DC-DC1,4*%
%TO.N,GND*%
X96456500Y-55181500D03*
%TO.P,DC-DC1,3*%
%TO.N,Net-(D2-Pad2)*%
X96456500Y-64960500D03*
%TO.P,DC-DC1,2*%
%TO.N,GND*%
X80708500Y-55245000D03*
%TO.P,DC-DC1,1*%
%TO.N,Net-(D1-Pad1)*%
X80708500Y-64960500D03*
%TD*%
D16*
%TO.P,D2,2*%
%TO.N,Net-(D2-Pad2)*%
X96202500Y-73723500D03*
D17*
%TO.P,D2,1*%
%TO.N,+5V*%
X88582500Y-73723500D03*
%TD*%
D16*
%TO.P,D1,2*%
%TO.N,+12V*%
X69342000Y-76009500D03*
D17*
%TO.P,D1,1*%
%TO.N,Net-(D1-Pad1)*%
X76962000Y-76009500D03*
%TD*%
D18*
%TO.P,A2,16*%
%TO.N,/dir*%
X64389000Y-66103500D03*
%TO.P,A2,8*%
%TO.N,+12V*%
X51689000Y-83883500D03*
%TO.P,A2,15*%
%TO.N,/step*%
X64389000Y-68643500D03*
%TO.P,A2,7*%
%TO.N,GND*%
X51689000Y-81343500D03*
%TO.P,A2,14*%
%TO.N,Net-(A2-Pad13)*%
X64389000Y-71183500D03*
%TO.P,A2,6*%
%TO.N,Net-(A2-Pad6)*%
X51689000Y-78803500D03*
%TO.P,A2,13*%
%TO.N,Net-(A2-Pad13)*%
X64389000Y-73723500D03*
%TO.P,A2,5*%
%TO.N,Net-(A2-Pad5)*%
X51689000Y-76263500D03*
%TO.P,A2,12*%
%TO.N,+5V*%
X64389000Y-76263500D03*
%TO.P,A2,4*%
%TO.N,Net-(A2-Pad4)*%
X51689000Y-73723500D03*
%TO.P,A2,11*%
%TO.N,+5V*%
X64389000Y-78803500D03*
%TO.P,A2,3*%
%TO.N,Net-(A2-Pad3)*%
X51689000Y-71183500D03*
%TO.P,A2,10*%
%TO.N,+5V*%
X64389000Y-81343500D03*
%TO.P,A2,2*%
X51689000Y-68643500D03*
%TO.P,A2,9*%
%TO.N,/enable*%
X64389000Y-83883500D03*
D19*
%TO.P,A2,1*%
%TO.N,GND*%
X51689000Y-66103500D03*
%TD*%
D18*
%TO.P,A1,16*%
%TO.N,Net-(A1-Pad16)*%
X107028000Y-68738500D03*
%TO.P,A1,15*%
%TO.N,Net-(A1-Pad15)*%
X107028000Y-83978500D03*
%TO.P,A1,30*%
%TO.N,Net-(A1-Pad30)*%
X71468000Y-68738500D03*
%TO.P,A1,14*%
%TO.N,Net-(A1-Pad14)*%
X104488000Y-83978500D03*
%TO.P,A1,29*%
%TO.N,GND*%
X74008000Y-68738500D03*
%TO.P,A1,13*%
%TO.N,Net-(A1-Pad13)*%
X101948000Y-83978500D03*
%TO.P,A1,28*%
%TO.N,Net-(A1-Pad28)*%
X76548000Y-68738500D03*
%TO.P,A1,12*%
%TO.N,/enable*%
X99408000Y-83978500D03*
%TO.P,A1,27*%
%TO.N,+5V*%
X79088000Y-68738500D03*
%TO.P,A1,11*%
%TO.N,/dir*%
X96868000Y-83978500D03*
%TO.P,A1,26*%
%TO.N,Net-(A1-Pad26)*%
X81628000Y-68738500D03*
%TO.P,A1,10*%
%TO.N,/step*%
X94328000Y-83978500D03*
%TO.P,A1,25*%
%TO.N,Net-(A1-Pad25)*%
X84168000Y-68738500D03*
%TO.P,A1,9*%
%TO.N,/sensor*%
X91788000Y-83978500D03*
%TO.P,A1,24*%
%TO.N,Net-(A1-Pad24)*%
X86708000Y-68738500D03*
%TO.P,A1,8*%
%TO.N,/CW*%
X89248000Y-83978500D03*
%TO.P,A1,23*%
%TO.N,Net-(A1-Pad23)*%
X89248000Y-68738500D03*
%TO.P,A1,7*%
%TO.N,/CCW*%
X86708000Y-83978500D03*
%TO.P,A1,22*%
%TO.N,Net-(A1-Pad22)*%
X91788000Y-68738500D03*
%TO.P,A1,6*%
%TO.N,/store*%
X84168000Y-83978500D03*
%TO.P,A1,21*%
%TO.N,Net-(A1-Pad21)*%
X94328000Y-68738500D03*
%TO.P,A1,5*%
%TO.N,/mode*%
X81628000Y-83978500D03*
%TO.P,A1,20*%
%TO.N,Net-(A1-Pad20)*%
X96868000Y-68738500D03*
%TO.P,A1,4*%
%TO.N,GND*%
X79088000Y-83978500D03*
%TO.P,A1,19*%
%TO.N,Net-(A1-Pad19)*%
X99408000Y-68738500D03*
%TO.P,A1,3*%
%TO.N,Net-(A1-Pad3)*%
X76548000Y-83978500D03*
%TO.P,A1,18*%
%TO.N,Net-(A1-Pad18)*%
X101948000Y-68738500D03*
%TO.P,A1,2*%
%TO.N,Net-(A1-Pad2)*%
X74008000Y-83978500D03*
%TO.P,A1,17*%
%TO.N,Net-(A1-Pad17)*%
X104488000Y-68738500D03*
D19*
%TO.P,A1,1*%
%TO.N,Net-(A1-Pad1)*%
X71468000Y-83978500D03*
%TD*%
D20*
%TO.N,GND*%
X56832500Y-55181500D03*
X56451500Y-78486000D03*
X60198000Y-69723000D03*
X73850500Y-65341500D03*
X72453500Y-76073000D03*
X82550000Y-75819000D03*
X94234000Y-78549500D03*
X107823000Y-79629000D03*
X109347000Y-73469500D03*
X113474500Y-66865500D03*
X113093500Y-88519000D03*
X105283000Y-93662500D03*
X81597500Y-93408500D03*
X72580500Y-93472000D03*
X51498500Y-88138000D03*
X50165000Y-62357000D03*
X83756500Y-73025000D03*
%TD*%
D21*
%TO.N,/enable*%
X64389000Y-83883500D02*
X66764740Y-81507760D01*
X90982262Y-81507760D02*
X93154500Y-83679998D01*
X66764740Y-81507760D02*
X90982262Y-81507760D01*
X93154500Y-84470002D02*
X93964998Y-85280500D01*
X93154500Y-83679998D02*
X93154500Y-84470002D01*
X98106000Y-85280500D02*
X99408000Y-83978500D01*
X93964998Y-85280500D02*
X98106000Y-85280500D01*
%TO.N,/step*%
X64389000Y-68643500D02*
X65976500Y-70231000D01*
X65976500Y-70231000D02*
X65976500Y-78422500D01*
X94328000Y-83978500D02*
X91407250Y-81057750D01*
X65976500Y-78422500D02*
X68611750Y-81057750D01*
X91407250Y-81057750D02*
X68611750Y-81057750D01*
%TO.N,/dir*%
X96868000Y-83978500D02*
X93497240Y-80607740D01*
X93497240Y-80607740D02*
X68798150Y-80607740D01*
X68798150Y-80607740D02*
X66426510Y-78236100D01*
X66426510Y-78236100D02*
X66426510Y-67379010D01*
X65151000Y-66103500D02*
X64389000Y-66103500D01*
X66426510Y-67379010D02*
X65151000Y-66103500D01*
%TO.N,/sensor*%
X99703000Y-90614500D02*
X96274000Y-87185500D01*
X96274000Y-87185500D02*
X93408500Y-87185500D01*
X91788000Y-85565000D02*
X91788000Y-83978500D01*
X93408500Y-87185500D02*
X91788000Y-85565000D01*
%TO.N,/CCW*%
X79383000Y-90614500D02*
X84780500Y-85217000D01*
X85469500Y-85217000D02*
X86708000Y-83978500D01*
X84780500Y-85217000D02*
X85469500Y-85217000D01*
%TO.N,/CW*%
X89248000Y-83978500D02*
X87184000Y-86042500D01*
X87184000Y-86042500D02*
X86677500Y-86042500D01*
X84463000Y-88257000D02*
X84463000Y-90614500D01*
X86677500Y-86042500D02*
X84463000Y-88257000D01*
%TO.N,/store*%
X84168000Y-83978500D02*
X81517000Y-86629500D01*
X81517000Y-86629500D02*
X75595000Y-86629500D01*
X74303000Y-87921500D02*
X74303000Y-90614500D01*
X75595000Y-86629500D02*
X74303000Y-87921500D01*
%TO.N,/mode*%
X69223000Y-90614500D02*
X73708000Y-86129500D01*
X79477000Y-86129500D02*
X81628000Y-83978500D01*
X73708000Y-86129500D02*
X79477000Y-86129500D01*
%TO.N,Net-(A1-Pad19)*%
X98994999Y-68325499D02*
X98994999Y-60771001D01*
X99408000Y-68738500D02*
X98994999Y-68325499D01*
X101136500Y-58629500D02*
X102595000Y-58629500D01*
X98994999Y-60771001D02*
X101136500Y-58629500D01*
X113093500Y-63500000D02*
X111950500Y-63500000D01*
X107080000Y-58629500D02*
X102595000Y-58629500D01*
X111950500Y-63500000D02*
X107080000Y-58629500D01*
%TO.N,Net-(A2-Pad13)*%
X64389000Y-73723500D02*
X64389000Y-71183500D01*
D22*
%TO.N,Net-(A2-Pad6)*%
X54995010Y-76628860D02*
X54995010Y-74094472D01*
X51689000Y-78803500D02*
X52820370Y-78803500D01*
X52820370Y-78803500D02*
X54995010Y-76628860D01*
X54995010Y-74094472D02*
X57795028Y-71294452D01*
X57795028Y-71294452D02*
X57795028Y-65202278D01*
X59967796Y-63029510D02*
X71399990Y-63029510D01*
X71399990Y-63029510D02*
X75311000Y-59118500D01*
X57795028Y-65202278D02*
X59967796Y-63029510D01*
%TO.N,Net-(A2-Pad5)*%
X70231000Y-59118500D02*
X67220000Y-62129500D01*
X59595000Y-62129500D02*
X56895020Y-64829480D01*
X67220000Y-62129500D02*
X59595000Y-62129500D01*
X56895019Y-70921657D02*
X54095000Y-73721676D01*
X56895020Y-64829480D02*
X56895019Y-70921657D01*
X54095000Y-73721676D02*
X54095000Y-75129500D01*
X52961000Y-76263500D02*
X51689000Y-76263500D01*
X54095000Y-75129500D02*
X52961000Y-76263500D01*
%TO.N,Net-(A2-Pad4)*%
X52820370Y-73723500D02*
X55995010Y-70548860D01*
X51689000Y-73723500D02*
X52820370Y-73723500D01*
X55995010Y-70548860D02*
X55995010Y-64229490D01*
X55995010Y-64229490D02*
X59055999Y-61168501D01*
X62011001Y-61168501D02*
X64061002Y-59118500D01*
X64061002Y-59118500D02*
X65151000Y-59118500D01*
X59055999Y-61168501D02*
X62011001Y-61168501D01*
%TO.N,Net-(A2-Pad3)*%
X60071000Y-59118500D02*
X57606000Y-59118500D01*
X57606000Y-59118500D02*
X55095000Y-61629500D01*
X55095000Y-61629500D02*
X55095000Y-69129500D01*
X53041000Y-71183500D02*
X51689000Y-71183500D01*
X55095000Y-69129500D02*
X53041000Y-71183500D01*
%TD*%
D23*
%TO.N,GND*%
G36*
X96112367Y-53820578D02*
G01*
X95853477Y-53913864D01*
X95737520Y-53975844D01*
X95670540Y-54215935D01*
X96456500Y-55001895D01*
X97242460Y-54215935D01*
X97175480Y-53975844D01*
X96926452Y-53858744D01*
X96659365Y-53792477D01*
X96595865Y-53789500D01*
X114435001Y-53789500D01*
X114435001Y-62988835D01*
X114365180Y-62820273D01*
X114208137Y-62585241D01*
X114008259Y-62385363D01*
X113773227Y-62228320D01*
X113512074Y-62120147D01*
X113234835Y-62065000D01*
X112952165Y-62065000D01*
X112674926Y-62120147D01*
X112413773Y-62228320D01*
X112178741Y-62385363D01*
X112044703Y-62519401D01*
X107643804Y-58118503D01*
X107620001Y-58089499D01*
X107504276Y-57994526D01*
X107372247Y-57923954D01*
X107228986Y-57880497D01*
X107117333Y-57869500D01*
X107117322Y-57869500D01*
X107080000Y-57865824D01*
X107042678Y-57869500D01*
X103782976Y-57869500D01*
X103690218Y-57730678D01*
X103493822Y-57534282D01*
X103262885Y-57379975D01*
X103006282Y-57273686D01*
X102733873Y-57219500D01*
X102456127Y-57219500D01*
X102183718Y-57273686D01*
X101927115Y-57379975D01*
X101696178Y-57534282D01*
X101499782Y-57730678D01*
X101407024Y-57869500D01*
X101173825Y-57869500D01*
X101136500Y-57865824D01*
X101099175Y-57869500D01*
X101099167Y-57869500D01*
X100987514Y-57880497D01*
X100844253Y-57923954D01*
X100712224Y-57994526D01*
X100596499Y-58089499D01*
X100572701Y-58118497D01*
X98483997Y-60207202D01*
X98454999Y-60231000D01*
X98431201Y-60259998D01*
X98431200Y-60259999D01*
X98360025Y-60346725D01*
X98289453Y-60478755D01*
X98281125Y-60506211D01*
X98247028Y-60618618D01*
X98245997Y-60622016D01*
X98231323Y-60771001D01*
X98235000Y-60808333D01*
X98234999Y-67911089D01*
X98138000Y-68056259D01*
X97982637Y-67823741D01*
X97782759Y-67623863D01*
X97547727Y-67466820D01*
X97286574Y-67358647D01*
X97009335Y-67303500D01*
X96726665Y-67303500D01*
X96449426Y-67358647D01*
X96188273Y-67466820D01*
X95953241Y-67623863D01*
X95753363Y-67823741D01*
X95598000Y-68056259D01*
X95442637Y-67823741D01*
X95242759Y-67623863D01*
X95007727Y-67466820D01*
X94746574Y-67358647D01*
X94469335Y-67303500D01*
X94186665Y-67303500D01*
X93909426Y-67358647D01*
X93648273Y-67466820D01*
X93413241Y-67623863D01*
X93213363Y-67823741D01*
X93058000Y-68056259D01*
X92902637Y-67823741D01*
X92702759Y-67623863D01*
X92467727Y-67466820D01*
X92206574Y-67358647D01*
X91929335Y-67303500D01*
X91646665Y-67303500D01*
X91369426Y-67358647D01*
X91108273Y-67466820D01*
X90873241Y-67623863D01*
X90673363Y-67823741D01*
X90518000Y-68056259D01*
X90362637Y-67823741D01*
X90162759Y-67623863D01*
X89927727Y-67466820D01*
X89666574Y-67358647D01*
X89389335Y-67303500D01*
X89106665Y-67303500D01*
X88829426Y-67358647D01*
X88568273Y-67466820D01*
X88333241Y-67623863D01*
X88133363Y-67823741D01*
X87978000Y-68056259D01*
X87822637Y-67823741D01*
X87622759Y-67623863D01*
X87387727Y-67466820D01*
X87126574Y-67358647D01*
X86849335Y-67303500D01*
X86566665Y-67303500D01*
X86289426Y-67358647D01*
X86028273Y-67466820D01*
X85793241Y-67623863D01*
X85593363Y-67823741D01*
X85438000Y-68056259D01*
X85282637Y-67823741D01*
X85082759Y-67623863D01*
X84847727Y-67466820D01*
X84586574Y-67358647D01*
X84309335Y-67303500D01*
X84026665Y-67303500D01*
X83749426Y-67358647D01*
X83488273Y-67466820D01*
X83253241Y-67623863D01*
X83053363Y-67823741D01*
X82898000Y-68056259D01*
X82742637Y-67823741D01*
X82542759Y-67623863D01*
X82307727Y-67466820D01*
X82046574Y-67358647D01*
X81769335Y-67303500D01*
X81486665Y-67303500D01*
X81209426Y-67358647D01*
X80948273Y-67466820D01*
X80713241Y-67623863D01*
X80513363Y-67823741D01*
X80358000Y-68056259D01*
X80202637Y-67823741D01*
X80002759Y-67623863D01*
X79767727Y-67466820D01*
X79506574Y-67358647D01*
X79229335Y-67303500D01*
X78946665Y-67303500D01*
X78669426Y-67358647D01*
X78408273Y-67466820D01*
X78173241Y-67623863D01*
X77973363Y-67823741D01*
X77818000Y-68056259D01*
X77662637Y-67823741D01*
X77462759Y-67623863D01*
X77227727Y-67466820D01*
X76966574Y-67358647D01*
X76689335Y-67303500D01*
X76406665Y-67303500D01*
X76129426Y-67358647D01*
X75868273Y-67466820D01*
X75633241Y-67623863D01*
X75433363Y-67823741D01*
X75276320Y-68058773D01*
X75271933Y-68069365D01*
X75160385Y-67883369D01*
X74971414Y-67674981D01*
X74745420Y-67507463D01*
X74491087Y-67387254D01*
X74357039Y-67346596D01*
X74135000Y-67468585D01*
X74135000Y-68611500D01*
X74155000Y-68611500D01*
X74155000Y-68865500D01*
X74135000Y-68865500D01*
X74135000Y-70008415D01*
X74357039Y-70130404D01*
X74491087Y-70089746D01*
X74745420Y-69969537D01*
X74971414Y-69802019D01*
X75160385Y-69593631D01*
X75271933Y-69407635D01*
X75276320Y-69418227D01*
X75433363Y-69653259D01*
X75633241Y-69853137D01*
X75868273Y-70010180D01*
X76129426Y-70118353D01*
X76406665Y-70173500D01*
X76689335Y-70173500D01*
X76966574Y-70118353D01*
X77227727Y-70010180D01*
X77462759Y-69853137D01*
X77662637Y-69653259D01*
X77818000Y-69420741D01*
X77973363Y-69653259D01*
X78173241Y-69853137D01*
X78408273Y-70010180D01*
X78669426Y-70118353D01*
X78946665Y-70173500D01*
X79229335Y-70173500D01*
X79506574Y-70118353D01*
X79767727Y-70010180D01*
X80002759Y-69853137D01*
X80202637Y-69653259D01*
X80358000Y-69420741D01*
X80513363Y-69653259D01*
X80713241Y-69853137D01*
X80948273Y-70010180D01*
X81209426Y-70118353D01*
X81486665Y-70173500D01*
X81769335Y-70173500D01*
X82046574Y-70118353D01*
X82307727Y-70010180D01*
X82542759Y-69853137D01*
X82742637Y-69653259D01*
X82898000Y-69420741D01*
X83053363Y-69653259D01*
X83253241Y-69853137D01*
X83488273Y-70010180D01*
X83749426Y-70118353D01*
X84026665Y-70173500D01*
X84309335Y-70173500D01*
X84586574Y-70118353D01*
X84847727Y-70010180D01*
X85082759Y-69853137D01*
X85282637Y-69653259D01*
X85438000Y-69420741D01*
X85593363Y-69653259D01*
X85793241Y-69853137D01*
X86028273Y-70010180D01*
X86289426Y-70118353D01*
X86566665Y-70173500D01*
X86849335Y-70173500D01*
X87126574Y-70118353D01*
X87387727Y-70010180D01*
X87622759Y-69853137D01*
X87822637Y-69653259D01*
X87978000Y-69420741D01*
X88133363Y-69653259D01*
X88333241Y-69853137D01*
X88568273Y-70010180D01*
X88829426Y-70118353D01*
X89106665Y-70173500D01*
X89389335Y-70173500D01*
X89666574Y-70118353D01*
X89927727Y-70010180D01*
X90162759Y-69853137D01*
X90362637Y-69653259D01*
X90518000Y-69420741D01*
X90673363Y-69653259D01*
X90873241Y-69853137D01*
X91108273Y-70010180D01*
X91369426Y-70118353D01*
X91646665Y-70173500D01*
X91929335Y-70173500D01*
X92206574Y-70118353D01*
X92467727Y-70010180D01*
X92702759Y-69853137D01*
X92902637Y-69653259D01*
X93058000Y-69420741D01*
X93213363Y-69653259D01*
X93413241Y-69853137D01*
X93648273Y-70010180D01*
X93909426Y-70118353D01*
X94186665Y-70173500D01*
X94469335Y-70173500D01*
X94746574Y-70118353D01*
X95007727Y-70010180D01*
X95242759Y-69853137D01*
X95442637Y-69653259D01*
X95598000Y-69420741D01*
X95753363Y-69653259D01*
X95953241Y-69853137D01*
X96188273Y-70010180D01*
X96449426Y-70118353D01*
X96726665Y-70173500D01*
X97009335Y-70173500D01*
X97286574Y-70118353D01*
X97547727Y-70010180D01*
X97782759Y-69853137D01*
X97982637Y-69653259D01*
X98138000Y-69420741D01*
X98293363Y-69653259D01*
X98493241Y-69853137D01*
X98728273Y-70010180D01*
X98989426Y-70118353D01*
X99266665Y-70173500D01*
X99549335Y-70173500D01*
X99826574Y-70118353D01*
X100087727Y-70010180D01*
X100322759Y-69853137D01*
X100522637Y-69653259D01*
X100678000Y-69420741D01*
X100833363Y-69653259D01*
X101033241Y-69853137D01*
X101268273Y-70010180D01*
X101529426Y-70118353D01*
X101806665Y-70173500D01*
X102089335Y-70173500D01*
X102366574Y-70118353D01*
X102627727Y-70010180D01*
X102862759Y-69853137D01*
X103062637Y-69653259D01*
X103218000Y-69420741D01*
X103373363Y-69653259D01*
X103573241Y-69853137D01*
X103808273Y-70010180D01*
X104069426Y-70118353D01*
X104346665Y-70173500D01*
X104629335Y-70173500D01*
X104906574Y-70118353D01*
X105167727Y-70010180D01*
X105402759Y-69853137D01*
X105602637Y-69653259D01*
X105758000Y-69420741D01*
X105913363Y-69653259D01*
X106113241Y-69853137D01*
X106348273Y-70010180D01*
X106609426Y-70118353D01*
X106886665Y-70173500D01*
X107169335Y-70173500D01*
X107446574Y-70118353D01*
X107707727Y-70010180D01*
X107942759Y-69853137D01*
X108142637Y-69653259D01*
X108299680Y-69418227D01*
X108407853Y-69157074D01*
X108463000Y-68879835D01*
X108463000Y-68597165D01*
X108407853Y-68319926D01*
X108299680Y-68058773D01*
X108142637Y-67823741D01*
X107942759Y-67623863D01*
X107707727Y-67466820D01*
X107446574Y-67358647D01*
X107169335Y-67303500D01*
X106886665Y-67303500D01*
X106609426Y-67358647D01*
X106348273Y-67466820D01*
X106113241Y-67623863D01*
X105913363Y-67823741D01*
X105758000Y-68056259D01*
X105602637Y-67823741D01*
X105402759Y-67623863D01*
X105167727Y-67466820D01*
X104906574Y-67358647D01*
X104629335Y-67303500D01*
X104346665Y-67303500D01*
X104069426Y-67358647D01*
X103808273Y-67466820D01*
X103573241Y-67623863D01*
X103373363Y-67823741D01*
X103218000Y-68056259D01*
X103062637Y-67823741D01*
X102862759Y-67623863D01*
X102627727Y-67466820D01*
X102366574Y-67358647D01*
X102089335Y-67303500D01*
X101806665Y-67303500D01*
X101529426Y-67358647D01*
X101268273Y-67466820D01*
X101033241Y-67623863D01*
X100833363Y-67823741D01*
X100678000Y-68056259D01*
X100522637Y-67823741D01*
X100322759Y-67623863D01*
X100087727Y-67466820D01*
X99826574Y-67358647D01*
X99754999Y-67344410D01*
X99754999Y-64999493D01*
X99956127Y-65039500D01*
X100233873Y-65039500D01*
X100506282Y-64985314D01*
X100762885Y-64879025D01*
X100993822Y-64724718D01*
X101190218Y-64528322D01*
X101272953Y-64404500D01*
X103681928Y-64404500D01*
X103694188Y-64528982D01*
X103730498Y-64648680D01*
X103789463Y-64758994D01*
X103868815Y-64855685D01*
X103965506Y-64935037D01*
X104075820Y-64994002D01*
X104195518Y-65030312D01*
X104320000Y-65042572D01*
X104809250Y-65039500D01*
X104968000Y-64880750D01*
X104968000Y-63756500D01*
X105222000Y-63756500D01*
X105222000Y-64880750D01*
X105380750Y-65039500D01*
X105870000Y-65042572D01*
X105994482Y-65030312D01*
X106114180Y-64994002D01*
X106224494Y-64935037D01*
X106321185Y-64855685D01*
X106400537Y-64758994D01*
X106459502Y-64648680D01*
X106495812Y-64528982D01*
X106499385Y-64492702D01*
X107280403Y-64492702D01*
X107351986Y-64736671D01*
X107607496Y-64857571D01*
X107881684Y-64926300D01*
X108164012Y-64940217D01*
X108443630Y-64898787D01*
X108709792Y-64803603D01*
X108835014Y-64736671D01*
X108906597Y-64492702D01*
X108093500Y-63679605D01*
X107280403Y-64492702D01*
X106499385Y-64492702D01*
X106508072Y-64404500D01*
X106505000Y-63915250D01*
X106346250Y-63756500D01*
X105222000Y-63756500D01*
X104968000Y-63756500D01*
X103843750Y-63756500D01*
X103685000Y-63915250D01*
X103681928Y-64404500D01*
X101272953Y-64404500D01*
X101344525Y-64297385D01*
X101450814Y-64040782D01*
X101505000Y-63768373D01*
X101505000Y-63570512D01*
X106653283Y-63570512D01*
X106694713Y-63850130D01*
X106789897Y-64116292D01*
X106856829Y-64241514D01*
X107100798Y-64313097D01*
X107913895Y-63500000D01*
X108273105Y-63500000D01*
X109086202Y-64313097D01*
X109330171Y-64241514D01*
X109451071Y-63986004D01*
X109519800Y-63711816D01*
X109533717Y-63429488D01*
X109492287Y-63149870D01*
X109397103Y-62883708D01*
X109330171Y-62758486D01*
X109086202Y-62686903D01*
X108273105Y-63500000D01*
X107913895Y-63500000D01*
X107100798Y-62686903D01*
X106856829Y-62758486D01*
X106735929Y-63013996D01*
X106667200Y-63288184D01*
X106653283Y-63570512D01*
X101505000Y-63570512D01*
X101505000Y-63490627D01*
X101450814Y-63218218D01*
X101344525Y-62961615D01*
X101272954Y-62854500D01*
X103681928Y-62854500D01*
X103685000Y-63343750D01*
X103843750Y-63502500D01*
X104968000Y-63502500D01*
X104968000Y-62378250D01*
X105222000Y-62378250D01*
X105222000Y-63502500D01*
X106346250Y-63502500D01*
X106505000Y-63343750D01*
X106508072Y-62854500D01*
X106495812Y-62730018D01*
X106459502Y-62610320D01*
X106404435Y-62507298D01*
X107280403Y-62507298D01*
X108093500Y-63320395D01*
X108906597Y-62507298D01*
X108835014Y-62263329D01*
X108579504Y-62142429D01*
X108305316Y-62073700D01*
X108022988Y-62059783D01*
X107743370Y-62101213D01*
X107477208Y-62196397D01*
X107351986Y-62263329D01*
X107280403Y-62507298D01*
X106404435Y-62507298D01*
X106400537Y-62500006D01*
X106321185Y-62403315D01*
X106224494Y-62323963D01*
X106114180Y-62264998D01*
X105994482Y-62228688D01*
X105870000Y-62216428D01*
X105380750Y-62219500D01*
X105222000Y-62378250D01*
X104968000Y-62378250D01*
X104809250Y-62219500D01*
X104320000Y-62216428D01*
X104195518Y-62228688D01*
X104075820Y-62264998D01*
X103965506Y-62323963D01*
X103868815Y-62403315D01*
X103789463Y-62500006D01*
X103730498Y-62610320D01*
X103694188Y-62730018D01*
X103681928Y-62854500D01*
X101272954Y-62854500D01*
X101190218Y-62730678D01*
X100993822Y-62534282D01*
X100762885Y-62379975D01*
X100506282Y-62273686D01*
X100233873Y-62219500D01*
X99956127Y-62219500D01*
X99754999Y-62259507D01*
X99754999Y-61085802D01*
X101424759Y-59416043D01*
X101499782Y-59528322D01*
X101696178Y-59724718D01*
X101927115Y-59879025D01*
X102183718Y-59985314D01*
X102456127Y-60039500D01*
X102733873Y-60039500D01*
X103006282Y-59985314D01*
X103262885Y-59879025D01*
X103493822Y-59724718D01*
X103690218Y-59528322D01*
X103782976Y-59389500D01*
X106765199Y-59389500D01*
X111386701Y-64011003D01*
X111410499Y-64040001D01*
X111439497Y-64063799D01*
X111526223Y-64134974D01*
X111612537Y-64181110D01*
X111658253Y-64205546D01*
X111801514Y-64249003D01*
X111872800Y-64256024D01*
X111978863Y-64414759D01*
X112178741Y-64614637D01*
X112413773Y-64771680D01*
X112674926Y-64879853D01*
X112952165Y-64935000D01*
X113234835Y-64935000D01*
X113512074Y-64879853D01*
X113773227Y-64771680D01*
X114008259Y-64614637D01*
X114208137Y-64414759D01*
X114365180Y-64179727D01*
X114435001Y-64011165D01*
X114435000Y-95969500D01*
X49755000Y-95969500D01*
X49755000Y-92909372D01*
X50360000Y-92909372D01*
X50360000Y-93349628D01*
X50445890Y-93781425D01*
X50614369Y-94188169D01*
X50858962Y-94554229D01*
X51170271Y-94865538D01*
X51536331Y-95110131D01*
X51943075Y-95278610D01*
X52374872Y-95364500D01*
X52815128Y-95364500D01*
X53246925Y-95278610D01*
X53653669Y-95110131D01*
X54019729Y-94865538D01*
X54331038Y-94554229D01*
X54575631Y-94188169D01*
X54744110Y-93781425D01*
X54830000Y-93349628D01*
X54830000Y-92909372D01*
X109360000Y-92909372D01*
X109360000Y-93349628D01*
X109445890Y-93781425D01*
X109614369Y-94188169D01*
X109858962Y-94554229D01*
X110170271Y-94865538D01*
X110536331Y-95110131D01*
X110943075Y-95278610D01*
X111374872Y-95364500D01*
X111815128Y-95364500D01*
X112246925Y-95278610D01*
X112653669Y-95110131D01*
X113019729Y-94865538D01*
X113331038Y-94554229D01*
X113575631Y-94188169D01*
X113744110Y-93781425D01*
X113830000Y-93349628D01*
X113830000Y-92909372D01*
X113744110Y-92477575D01*
X113575631Y-92070831D01*
X113331038Y-91704771D01*
X113019729Y-91393462D01*
X112653669Y-91148869D01*
X112246925Y-90980390D01*
X111815128Y-90894500D01*
X111374872Y-90894500D01*
X110943075Y-90980390D01*
X110536331Y-91148869D01*
X110170271Y-91393462D01*
X109858962Y-91704771D01*
X109614369Y-92070831D01*
X109445890Y-92477575D01*
X109360000Y-92909372D01*
X54830000Y-92909372D01*
X54744110Y-92477575D01*
X54590262Y-92106153D01*
X57769952Y-92106153D01*
X57925962Y-92421714D01*
X58300745Y-92612520D01*
X58705551Y-92726544D01*
X59124824Y-92759402D01*
X59542451Y-92709834D01*
X59942383Y-92579743D01*
X60238038Y-92421714D01*
X60394048Y-92106153D01*
X59082000Y-90794105D01*
X57769952Y-92106153D01*
X54590262Y-92106153D01*
X54575631Y-92070831D01*
X54331038Y-91704771D01*
X54019729Y-91393462D01*
X53653669Y-91148869D01*
X53246925Y-90980390D01*
X52815128Y-90894500D01*
X52374872Y-90894500D01*
X51943075Y-90980390D01*
X51536331Y-91148869D01*
X51170271Y-91393462D01*
X50858962Y-91704771D01*
X50614369Y-92070831D01*
X50445890Y-92477575D01*
X50360000Y-92909372D01*
X49755000Y-92909372D01*
X49755000Y-90657324D01*
X56937098Y-90657324D01*
X56986666Y-91074951D01*
X57116757Y-91474883D01*
X57274786Y-91770538D01*
X57590347Y-91926548D01*
X58902395Y-90614500D01*
X59261605Y-90614500D01*
X60573653Y-91926548D01*
X60889214Y-91770538D01*
X61080020Y-91395755D01*
X61194044Y-90990949D01*
X61226902Y-90571676D01*
X61177334Y-90154049D01*
X61047243Y-89754117D01*
X60889214Y-89458462D01*
X60573653Y-89302452D01*
X59261605Y-90614500D01*
X58902395Y-90614500D01*
X57590347Y-89302452D01*
X57274786Y-89458462D01*
X57083980Y-89833245D01*
X56969956Y-90238051D01*
X56937098Y-90657324D01*
X49755000Y-90657324D01*
X49755000Y-89122847D01*
X57769952Y-89122847D01*
X59082000Y-90434895D01*
X60394048Y-89122847D01*
X60389922Y-89114500D01*
X62023928Y-89114500D01*
X62023928Y-92114500D01*
X62036188Y-92238982D01*
X62072498Y-92358680D01*
X62131463Y-92468994D01*
X62210815Y-92565685D01*
X62307506Y-92645037D01*
X62417820Y-92704002D01*
X62537518Y-92740312D01*
X62662000Y-92752572D01*
X65662000Y-92752572D01*
X65786482Y-92740312D01*
X65906180Y-92704002D01*
X66016494Y-92645037D01*
X66113185Y-92565685D01*
X66192537Y-92468994D01*
X66251502Y-92358680D01*
X66287812Y-92238982D01*
X66300072Y-92114500D01*
X66300072Y-89114500D01*
X66287812Y-88990018D01*
X66251502Y-88870320D01*
X66192537Y-88760006D01*
X66113185Y-88663315D01*
X66016494Y-88583963D01*
X65906180Y-88524998D01*
X65786482Y-88488688D01*
X65662000Y-88476428D01*
X62662000Y-88476428D01*
X62537518Y-88488688D01*
X62417820Y-88524998D01*
X62307506Y-88583963D01*
X62210815Y-88663315D01*
X62131463Y-88760006D01*
X62072498Y-88870320D01*
X62036188Y-88990018D01*
X62023928Y-89114500D01*
X60389922Y-89114500D01*
X60238038Y-88807286D01*
X59863255Y-88616480D01*
X59458449Y-88502456D01*
X59039176Y-88469598D01*
X58621549Y-88519166D01*
X58221617Y-88649257D01*
X57925962Y-88807286D01*
X57769952Y-89122847D01*
X49755000Y-89122847D01*
X49755000Y-83742165D01*
X50254000Y-83742165D01*
X50254000Y-84024835D01*
X50309147Y-84302074D01*
X50417320Y-84563227D01*
X50574363Y-84798259D01*
X50774241Y-84998137D01*
X51009273Y-85155180D01*
X51270426Y-85263353D01*
X51547665Y-85318500D01*
X51830335Y-85318500D01*
X52107574Y-85263353D01*
X52368727Y-85155180D01*
X52603759Y-84998137D01*
X52803637Y-84798259D01*
X52960680Y-84563227D01*
X53068853Y-84302074D01*
X53124000Y-84024835D01*
X53124000Y-83742165D01*
X53068853Y-83464926D01*
X52960680Y-83203773D01*
X52803637Y-82968741D01*
X52603759Y-82768863D01*
X52368727Y-82611820D01*
X52358135Y-82607433D01*
X52544131Y-82495885D01*
X52752519Y-82306914D01*
X52920037Y-82080920D01*
X53040246Y-81826587D01*
X53080904Y-81692539D01*
X52958915Y-81470500D01*
X51816000Y-81470500D01*
X51816000Y-81490500D01*
X51562000Y-81490500D01*
X51562000Y-81470500D01*
X50419085Y-81470500D01*
X50297096Y-81692539D01*
X50337754Y-81826587D01*
X50457963Y-82080920D01*
X50625481Y-82306914D01*
X50833869Y-82495885D01*
X51019865Y-82607433D01*
X51009273Y-82611820D01*
X50774241Y-82768863D01*
X50574363Y-82968741D01*
X50417320Y-83203773D01*
X50309147Y-83464926D01*
X50254000Y-83742165D01*
X49755000Y-83742165D01*
X49755000Y-66903500D01*
X50250928Y-66903500D01*
X50263188Y-67027982D01*
X50299498Y-67147680D01*
X50358463Y-67257994D01*
X50437815Y-67354685D01*
X50534506Y-67434037D01*
X50644820Y-67493002D01*
X50764518Y-67529312D01*
X50772961Y-67530143D01*
X50574363Y-67728741D01*
X50417320Y-67963773D01*
X50309147Y-68224926D01*
X50254000Y-68502165D01*
X50254000Y-68784835D01*
X50309147Y-69062074D01*
X50417320Y-69323227D01*
X50574363Y-69558259D01*
X50774241Y-69758137D01*
X51006759Y-69913500D01*
X50774241Y-70068863D01*
X50574363Y-70268741D01*
X50417320Y-70503773D01*
X50309147Y-70764926D01*
X50254000Y-71042165D01*
X50254000Y-71324835D01*
X50309147Y-71602074D01*
X50417320Y-71863227D01*
X50574363Y-72098259D01*
X50774241Y-72298137D01*
X51006759Y-72453500D01*
X50774241Y-72608863D01*
X50574363Y-72808741D01*
X50417320Y-73043773D01*
X50309147Y-73304926D01*
X50254000Y-73582165D01*
X50254000Y-73864835D01*
X50309147Y-74142074D01*
X50417320Y-74403227D01*
X50574363Y-74638259D01*
X50774241Y-74838137D01*
X51006759Y-74993500D01*
X50774241Y-75148863D01*
X50574363Y-75348741D01*
X50417320Y-75583773D01*
X50309147Y-75844926D01*
X50254000Y-76122165D01*
X50254000Y-76404835D01*
X50309147Y-76682074D01*
X50417320Y-76943227D01*
X50574363Y-77178259D01*
X50774241Y-77378137D01*
X51006759Y-77533500D01*
X50774241Y-77688863D01*
X50574363Y-77888741D01*
X50417320Y-78123773D01*
X50309147Y-78384926D01*
X50254000Y-78662165D01*
X50254000Y-78944835D01*
X50309147Y-79222074D01*
X50417320Y-79483227D01*
X50574363Y-79718259D01*
X50774241Y-79918137D01*
X51009273Y-80075180D01*
X51019865Y-80079567D01*
X50833869Y-80191115D01*
X50625481Y-80380086D01*
X50457963Y-80606080D01*
X50337754Y-80860413D01*
X50297096Y-80994461D01*
X50419085Y-81216500D01*
X51562000Y-81216500D01*
X51562000Y-81196500D01*
X51816000Y-81196500D01*
X51816000Y-81216500D01*
X52958915Y-81216500D01*
X53080904Y-80994461D01*
X53040246Y-80860413D01*
X52920037Y-80606080D01*
X52752519Y-80380086D01*
X52544131Y-80191115D01*
X52358135Y-80079567D01*
X52368727Y-80075180D01*
X52603759Y-79918137D01*
X52733396Y-79788500D01*
X52771990Y-79788500D01*
X52820370Y-79793265D01*
X52868750Y-79788500D01*
X53013464Y-79774247D01*
X53199137Y-79717924D01*
X53370254Y-79626460D01*
X53520240Y-79503370D01*
X53551086Y-79465784D01*
X55657294Y-77359576D01*
X55694880Y-77328730D01*
X55817970Y-77178744D01*
X55909434Y-77007627D01*
X55965757Y-76821954D01*
X55980010Y-76677240D01*
X55980010Y-76677239D01*
X55984775Y-76628861D01*
X55980010Y-76580481D01*
X55980010Y-74502471D01*
X58457312Y-72025168D01*
X58494898Y-71994322D01*
X58617988Y-71844336D01*
X58709452Y-71673219D01*
X58765775Y-71487546D01*
X58780028Y-71342832D01*
X58780028Y-71342831D01*
X58784793Y-71294452D01*
X58780028Y-71246072D01*
X58780028Y-65962165D01*
X62954000Y-65962165D01*
X62954000Y-66244835D01*
X63009147Y-66522074D01*
X63117320Y-66783227D01*
X63274363Y-67018259D01*
X63474241Y-67218137D01*
X63706759Y-67373500D01*
X63474241Y-67528863D01*
X63274363Y-67728741D01*
X63117320Y-67963773D01*
X63009147Y-68224926D01*
X62954000Y-68502165D01*
X62954000Y-68784835D01*
X63009147Y-69062074D01*
X63117320Y-69323227D01*
X63274363Y-69558259D01*
X63474241Y-69758137D01*
X63706759Y-69913500D01*
X63474241Y-70068863D01*
X63274363Y-70268741D01*
X63117320Y-70503773D01*
X63009147Y-70764926D01*
X62954000Y-71042165D01*
X62954000Y-71324835D01*
X63009147Y-71602074D01*
X63117320Y-71863227D01*
X63274363Y-72098259D01*
X63474241Y-72298137D01*
X63629001Y-72401544D01*
X63629000Y-72505456D01*
X63474241Y-72608863D01*
X63274363Y-72808741D01*
X63117320Y-73043773D01*
X63009147Y-73304926D01*
X62954000Y-73582165D01*
X62954000Y-73864835D01*
X63009147Y-74142074D01*
X63117320Y-74403227D01*
X63274363Y-74638259D01*
X63474241Y-74838137D01*
X63706759Y-74993500D01*
X63474241Y-75148863D01*
X63274363Y-75348741D01*
X63117320Y-75583773D01*
X63009147Y-75844926D01*
X62954000Y-76122165D01*
X62954000Y-76404835D01*
X63009147Y-76682074D01*
X63117320Y-76943227D01*
X63274363Y-77178259D01*
X63474241Y-77378137D01*
X63706759Y-77533500D01*
X63474241Y-77688863D01*
X63274363Y-77888741D01*
X63117320Y-78123773D01*
X63009147Y-78384926D01*
X62954000Y-78662165D01*
X62954000Y-78944835D01*
X63009147Y-79222074D01*
X63117320Y-79483227D01*
X63274363Y-79718259D01*
X63474241Y-79918137D01*
X63706759Y-80073500D01*
X63474241Y-80228863D01*
X63274363Y-80428741D01*
X63117320Y-80663773D01*
X63009147Y-80924926D01*
X62954000Y-81202165D01*
X62954000Y-81484835D01*
X63009147Y-81762074D01*
X63117320Y-82023227D01*
X63274363Y-82258259D01*
X63474241Y-82458137D01*
X63706759Y-82613500D01*
X63474241Y-82768863D01*
X63274363Y-82968741D01*
X63117320Y-83203773D01*
X63009147Y-83464926D01*
X62954000Y-83742165D01*
X62954000Y-84024835D01*
X63009147Y-84302074D01*
X63117320Y-84563227D01*
X63274363Y-84798259D01*
X63474241Y-84998137D01*
X63709273Y-85155180D01*
X63970426Y-85263353D01*
X64247665Y-85318500D01*
X64530335Y-85318500D01*
X64807574Y-85263353D01*
X65068727Y-85155180D01*
X65303759Y-84998137D01*
X65503637Y-84798259D01*
X65660680Y-84563227D01*
X65768853Y-84302074D01*
X65824000Y-84024835D01*
X65824000Y-83742165D01*
X65787688Y-83559614D01*
X67079542Y-82267760D01*
X90667461Y-82267760D01*
X91107222Y-82707522D01*
X90873241Y-82863863D01*
X90673363Y-83063741D01*
X90518000Y-83296259D01*
X90362637Y-83063741D01*
X90162759Y-82863863D01*
X89927727Y-82706820D01*
X89666574Y-82598647D01*
X89389335Y-82543500D01*
X89106665Y-82543500D01*
X88829426Y-82598647D01*
X88568273Y-82706820D01*
X88333241Y-82863863D01*
X88133363Y-83063741D01*
X87978000Y-83296259D01*
X87822637Y-83063741D01*
X87622759Y-82863863D01*
X87387727Y-82706820D01*
X87126574Y-82598647D01*
X86849335Y-82543500D01*
X86566665Y-82543500D01*
X86289426Y-82598647D01*
X86028273Y-82706820D01*
X85793241Y-82863863D01*
X85593363Y-83063741D01*
X85438000Y-83296259D01*
X85282637Y-83063741D01*
X85082759Y-82863863D01*
X84847727Y-82706820D01*
X84586574Y-82598647D01*
X84309335Y-82543500D01*
X84026665Y-82543500D01*
X83749426Y-82598647D01*
X83488273Y-82706820D01*
X83253241Y-82863863D01*
X83053363Y-83063741D01*
X82898000Y-83296259D01*
X82742637Y-83063741D01*
X82542759Y-82863863D01*
X82307727Y-82706820D01*
X82046574Y-82598647D01*
X81769335Y-82543500D01*
X81486665Y-82543500D01*
X81209426Y-82598647D01*
X80948273Y-82706820D01*
X80713241Y-82863863D01*
X80513363Y-83063741D01*
X80356320Y-83298773D01*
X80351933Y-83309365D01*
X80240385Y-83123369D01*
X80051414Y-82914981D01*
X79825420Y-82747463D01*
X79571087Y-82627254D01*
X79437039Y-82586596D01*
X79215000Y-82708585D01*
X79215000Y-83851500D01*
X79235000Y-83851500D01*
X79235000Y-84105500D01*
X79215000Y-84105500D01*
X79215000Y-84125500D01*
X78961000Y-84125500D01*
X78961000Y-84105500D01*
X78941000Y-84105500D01*
X78941000Y-83851500D01*
X78961000Y-83851500D01*
X78961000Y-82708585D01*
X78738961Y-82586596D01*
X78604913Y-82627254D01*
X78350580Y-82747463D01*
X78124586Y-82914981D01*
X77935615Y-83123369D01*
X77824067Y-83309365D01*
X77819680Y-83298773D01*
X77662637Y-83063741D01*
X77462759Y-82863863D01*
X77227727Y-82706820D01*
X76966574Y-82598647D01*
X76689335Y-82543500D01*
X76406665Y-82543500D01*
X76129426Y-82598647D01*
X75868273Y-82706820D01*
X75633241Y-82863863D01*
X75433363Y-83063741D01*
X75278000Y-83296259D01*
X75122637Y-83063741D01*
X74922759Y-82863863D01*
X74687727Y-82706820D01*
X74426574Y-82598647D01*
X74149335Y-82543500D01*
X73866665Y-82543500D01*
X73589426Y-82598647D01*
X73328273Y-82706820D01*
X73093241Y-82863863D01*
X72894643Y-83062461D01*
X72893812Y-83054018D01*
X72857502Y-82934320D01*
X72798537Y-82824006D01*
X72719185Y-82727315D01*
X72622494Y-82647963D01*
X72512180Y-82588998D01*
X72392482Y-82552688D01*
X72268000Y-82540428D01*
X70668000Y-82540428D01*
X70543518Y-82552688D01*
X70423820Y-82588998D01*
X70313506Y-82647963D01*
X70216815Y-82727315D01*
X70137463Y-82824006D01*
X70078498Y-82934320D01*
X70042188Y-83054018D01*
X70029928Y-83178500D01*
X70029928Y-84778500D01*
X70042188Y-84902982D01*
X70078498Y-85022680D01*
X70137463Y-85132994D01*
X70216815Y-85229685D01*
X70313506Y-85309037D01*
X70423820Y-85368002D01*
X70543518Y-85404312D01*
X70668000Y-85416572D01*
X72268000Y-85416572D01*
X72392482Y-85404312D01*
X72512180Y-85368002D01*
X72622494Y-85309037D01*
X72719185Y-85229685D01*
X72798537Y-85132994D01*
X72857502Y-85022680D01*
X72893812Y-84902982D01*
X72894643Y-84894539D01*
X73093241Y-85093137D01*
X73328273Y-85250180D01*
X73589426Y-85358353D01*
X73653811Y-85371160D01*
X73559014Y-85380497D01*
X73415753Y-85423954D01*
X73283724Y-85494526D01*
X73167999Y-85589499D01*
X73144201Y-85618497D01*
X70097059Y-88665640D01*
X69845756Y-88561547D01*
X69433279Y-88479500D01*
X69012721Y-88479500D01*
X68600244Y-88561547D01*
X68211698Y-88722488D01*
X67862017Y-88956137D01*
X67564637Y-89253517D01*
X67330988Y-89603198D01*
X67170047Y-89991744D01*
X67088000Y-90404221D01*
X67088000Y-90824779D01*
X67170047Y-91237256D01*
X67330988Y-91625802D01*
X67564637Y-91975483D01*
X67862017Y-92272863D01*
X68211698Y-92506512D01*
X68600244Y-92667453D01*
X69012721Y-92749500D01*
X69433279Y-92749500D01*
X69845756Y-92667453D01*
X70234302Y-92506512D01*
X70583983Y-92272863D01*
X70881363Y-91975483D01*
X71115012Y-91625802D01*
X71275953Y-91237256D01*
X71358000Y-90824779D01*
X71358000Y-90404221D01*
X71275953Y-89991744D01*
X71171860Y-89740441D01*
X74022802Y-86889500D01*
X74260199Y-86889500D01*
X73792003Y-87357696D01*
X73762999Y-87381499D01*
X73707871Y-87448674D01*
X73668026Y-87497224D01*
X73597455Y-87629253D01*
X73597454Y-87629254D01*
X73553997Y-87772515D01*
X73543000Y-87884168D01*
X73543000Y-87884178D01*
X73539324Y-87921500D01*
X73543000Y-87958823D01*
X73543000Y-88476428D01*
X72803000Y-88476428D01*
X72678518Y-88488688D01*
X72558820Y-88524998D01*
X72448506Y-88583963D01*
X72351815Y-88663315D01*
X72272463Y-88760006D01*
X72213498Y-88870320D01*
X72177188Y-88990018D01*
X72164928Y-89114500D01*
X72164928Y-92114500D01*
X72177188Y-92238982D01*
X72213498Y-92358680D01*
X72272463Y-92468994D01*
X72351815Y-92565685D01*
X72448506Y-92645037D01*
X72558820Y-92704002D01*
X72678518Y-92740312D01*
X72803000Y-92752572D01*
X75803000Y-92752572D01*
X75927482Y-92740312D01*
X76047180Y-92704002D01*
X76157494Y-92645037D01*
X76254185Y-92565685D01*
X76333537Y-92468994D01*
X76392502Y-92358680D01*
X76428812Y-92238982D01*
X76441072Y-92114500D01*
X76441072Y-89114500D01*
X76428812Y-88990018D01*
X76392502Y-88870320D01*
X76333537Y-88760006D01*
X76254185Y-88663315D01*
X76157494Y-88583963D01*
X76047180Y-88524998D01*
X75927482Y-88488688D01*
X75803000Y-88476428D01*
X75063000Y-88476428D01*
X75063000Y-88236301D01*
X75909802Y-87389500D01*
X81479678Y-87389500D01*
X81517000Y-87393176D01*
X81530891Y-87391808D01*
X80257059Y-88665640D01*
X80005756Y-88561547D01*
X79593279Y-88479500D01*
X79172721Y-88479500D01*
X78760244Y-88561547D01*
X78371698Y-88722488D01*
X78022017Y-88956137D01*
X77724637Y-89253517D01*
X77490988Y-89603198D01*
X77330047Y-89991744D01*
X77248000Y-90404221D01*
X77248000Y-90824779D01*
X77330047Y-91237256D01*
X77490988Y-91625802D01*
X77724637Y-91975483D01*
X78022017Y-92272863D01*
X78371698Y-92506512D01*
X78760244Y-92667453D01*
X79172721Y-92749500D01*
X79593279Y-92749500D01*
X80005756Y-92667453D01*
X80394302Y-92506512D01*
X80743983Y-92272863D01*
X81041363Y-91975483D01*
X81275012Y-91625802D01*
X81435953Y-91237256D01*
X81518000Y-90824779D01*
X81518000Y-90404221D01*
X81435953Y-89991744D01*
X81331860Y-89740441D01*
X85095302Y-85977000D01*
X85432178Y-85977000D01*
X85469500Y-85980676D01*
X85506822Y-85977000D01*
X85506833Y-85977000D01*
X85618486Y-85966003D01*
X85705629Y-85939569D01*
X83952003Y-87693196D01*
X83922999Y-87716999D01*
X83877439Y-87772515D01*
X83828026Y-87832724D01*
X83796852Y-87891046D01*
X83757454Y-87964754D01*
X83713997Y-88108015D01*
X83703000Y-88219668D01*
X83703000Y-88219678D01*
X83699324Y-88257000D01*
X83703000Y-88294323D01*
X83703000Y-88476428D01*
X82963000Y-88476428D01*
X82838518Y-88488688D01*
X82718820Y-88524998D01*
X82608506Y-88583963D01*
X82511815Y-88663315D01*
X82432463Y-88760006D01*
X82373498Y-88870320D01*
X82337188Y-88990018D01*
X82324928Y-89114500D01*
X82324928Y-92114500D01*
X82337188Y-92238982D01*
X82373498Y-92358680D01*
X82432463Y-92468994D01*
X82511815Y-92565685D01*
X82608506Y-92645037D01*
X82718820Y-92704002D01*
X82838518Y-92740312D01*
X82963000Y-92752572D01*
X85963000Y-92752572D01*
X86087482Y-92740312D01*
X86207180Y-92704002D01*
X86317494Y-92645037D01*
X86414185Y-92565685D01*
X86493537Y-92468994D01*
X86552502Y-92358680D01*
X86588812Y-92238982D01*
X86601072Y-92114500D01*
X86601072Y-92106153D01*
X88230952Y-92106153D01*
X88386962Y-92421714D01*
X88761745Y-92612520D01*
X89166551Y-92726544D01*
X89585824Y-92759402D01*
X90003451Y-92709834D01*
X90403383Y-92579743D01*
X90699038Y-92421714D01*
X90850921Y-92114500D01*
X92484928Y-92114500D01*
X92497188Y-92238982D01*
X92533498Y-92358680D01*
X92592463Y-92468994D01*
X92671815Y-92565685D01*
X92768506Y-92645037D01*
X92878820Y-92704002D01*
X92998518Y-92740312D01*
X93123000Y-92752572D01*
X94337250Y-92749500D01*
X94496000Y-92590750D01*
X94496000Y-90741500D01*
X94750000Y-90741500D01*
X94750000Y-92590750D01*
X94908750Y-92749500D01*
X96123000Y-92752572D01*
X96247482Y-92740312D01*
X96367180Y-92704002D01*
X96477494Y-92645037D01*
X96574185Y-92565685D01*
X96653537Y-92468994D01*
X96712502Y-92358680D01*
X96748812Y-92238982D01*
X96761072Y-92114500D01*
X96758000Y-90900250D01*
X96599250Y-90741500D01*
X94750000Y-90741500D01*
X94496000Y-90741500D01*
X92646750Y-90741500D01*
X92488000Y-90900250D01*
X92484928Y-92114500D01*
X90850921Y-92114500D01*
X90855048Y-92106153D01*
X89543000Y-90794105D01*
X88230952Y-92106153D01*
X86601072Y-92106153D01*
X86601072Y-90657324D01*
X87398098Y-90657324D01*
X87447666Y-91074951D01*
X87577757Y-91474883D01*
X87735786Y-91770538D01*
X88051347Y-91926548D01*
X89363395Y-90614500D01*
X89722605Y-90614500D01*
X91034653Y-91926548D01*
X91350214Y-91770538D01*
X91541020Y-91395755D01*
X91655044Y-90990949D01*
X91687902Y-90571676D01*
X91638334Y-90154049D01*
X91508243Y-89754117D01*
X91350214Y-89458462D01*
X91034653Y-89302452D01*
X89722605Y-90614500D01*
X89363395Y-90614500D01*
X88051347Y-89302452D01*
X87735786Y-89458462D01*
X87544980Y-89833245D01*
X87430956Y-90238051D01*
X87398098Y-90657324D01*
X86601072Y-90657324D01*
X86601072Y-89122847D01*
X88230952Y-89122847D01*
X89543000Y-90434895D01*
X90855048Y-89122847D01*
X90850922Y-89114500D01*
X92484928Y-89114500D01*
X92488000Y-90328750D01*
X92646750Y-90487500D01*
X94496000Y-90487500D01*
X94496000Y-88638250D01*
X94750000Y-88638250D01*
X94750000Y-90487500D01*
X96599250Y-90487500D01*
X96758000Y-90328750D01*
X96761072Y-89114500D01*
X96748812Y-88990018D01*
X96712502Y-88870320D01*
X96653537Y-88760006D01*
X96574185Y-88663315D01*
X96477494Y-88583963D01*
X96367180Y-88524998D01*
X96247482Y-88488688D01*
X96123000Y-88476428D01*
X94908750Y-88479500D01*
X94750000Y-88638250D01*
X94496000Y-88638250D01*
X94337250Y-88479500D01*
X93123000Y-88476428D01*
X92998518Y-88488688D01*
X92878820Y-88524998D01*
X92768506Y-88583963D01*
X92671815Y-88663315D01*
X92592463Y-88760006D01*
X92533498Y-88870320D01*
X92497188Y-88990018D01*
X92484928Y-89114500D01*
X90850922Y-89114500D01*
X90699038Y-88807286D01*
X90324255Y-88616480D01*
X89919449Y-88502456D01*
X89500176Y-88469598D01*
X89082549Y-88519166D01*
X88682617Y-88649257D01*
X88386962Y-88807286D01*
X88230952Y-89122847D01*
X86601072Y-89122847D01*
X86601072Y-89114500D01*
X86588812Y-88990018D01*
X86552502Y-88870320D01*
X86493537Y-88760006D01*
X86414185Y-88663315D01*
X86317494Y-88583963D01*
X86207180Y-88524998D01*
X86087482Y-88488688D01*
X85963000Y-88476428D01*
X85318373Y-88476428D01*
X86992302Y-86802500D01*
X87146678Y-86802500D01*
X87184000Y-86806176D01*
X87221322Y-86802500D01*
X87221333Y-86802500D01*
X87332986Y-86791503D01*
X87476247Y-86748046D01*
X87608276Y-86677474D01*
X87724001Y-86582501D01*
X87747804Y-86553497D01*
X88924114Y-85377188D01*
X89106665Y-85413500D01*
X89389335Y-85413500D01*
X89666574Y-85358353D01*
X89927727Y-85250180D01*
X90162759Y-85093137D01*
X90362637Y-84893259D01*
X90518000Y-84660741D01*
X90673363Y-84893259D01*
X90873241Y-85093137D01*
X91028000Y-85196544D01*
X91028000Y-85527677D01*
X91024324Y-85565000D01*
X91028000Y-85602322D01*
X91028000Y-85602332D01*
X91038997Y-85713985D01*
X91071308Y-85820501D01*
X91082454Y-85857246D01*
X91153026Y-85989276D01*
X91157335Y-85994526D01*
X91247999Y-86105001D01*
X91277003Y-86128804D01*
X92844700Y-87696502D01*
X92868499Y-87725501D01*
X92897497Y-87749299D01*
X92984223Y-87820474D01*
X93103383Y-87884167D01*
X93116253Y-87891046D01*
X93259514Y-87934503D01*
X93371167Y-87945500D01*
X93371176Y-87945500D01*
X93408499Y-87949176D01*
X93445822Y-87945500D01*
X95959199Y-87945500D01*
X97754140Y-89740441D01*
X97650047Y-89991744D01*
X97568000Y-90404221D01*
X97568000Y-90824779D01*
X97650047Y-91237256D01*
X97810988Y-91625802D01*
X98044637Y-91975483D01*
X98342017Y-92272863D01*
X98691698Y-92506512D01*
X99080244Y-92667453D01*
X99492721Y-92749500D01*
X99913279Y-92749500D01*
X100325756Y-92667453D01*
X100714302Y-92506512D01*
X101063983Y-92272863D01*
X101361363Y-91975483D01*
X101595012Y-91625802D01*
X101755953Y-91237256D01*
X101838000Y-90824779D01*
X101838000Y-90404221D01*
X101755953Y-89991744D01*
X101595012Y-89603198D01*
X101361363Y-89253517D01*
X101222346Y-89114500D01*
X102644928Y-89114500D01*
X102644928Y-92114500D01*
X102657188Y-92238982D01*
X102693498Y-92358680D01*
X102752463Y-92468994D01*
X102831815Y-92565685D01*
X102928506Y-92645037D01*
X103038820Y-92704002D01*
X103158518Y-92740312D01*
X103283000Y-92752572D01*
X106283000Y-92752572D01*
X106407482Y-92740312D01*
X106527180Y-92704002D01*
X106637494Y-92645037D01*
X106734185Y-92565685D01*
X106813537Y-92468994D01*
X106872502Y-92358680D01*
X106908812Y-92238982D01*
X106921072Y-92114500D01*
X106921072Y-89114500D01*
X106908812Y-88990018D01*
X106872502Y-88870320D01*
X106813537Y-88760006D01*
X106734185Y-88663315D01*
X106637494Y-88583963D01*
X106527180Y-88524998D01*
X106407482Y-88488688D01*
X106283000Y-88476428D01*
X103283000Y-88476428D01*
X103158518Y-88488688D01*
X103038820Y-88524998D01*
X102928506Y-88583963D01*
X102831815Y-88663315D01*
X102752463Y-88760006D01*
X102693498Y-88870320D01*
X102657188Y-88990018D01*
X102644928Y-89114500D01*
X101222346Y-89114500D01*
X101063983Y-88956137D01*
X100714302Y-88722488D01*
X100325756Y-88561547D01*
X99913279Y-88479500D01*
X99492721Y-88479500D01*
X99080244Y-88561547D01*
X98828941Y-88665640D01*
X96837804Y-86674503D01*
X96814001Y-86645499D01*
X96698276Y-86550526D01*
X96566247Y-86479954D01*
X96422986Y-86436497D01*
X96311333Y-86425500D01*
X96311322Y-86425500D01*
X96274000Y-86421824D01*
X96236678Y-86425500D01*
X93723302Y-86425500D01*
X92548000Y-85250199D01*
X92548000Y-85196543D01*
X92702759Y-85093137D01*
X92702796Y-85093100D01*
X93401199Y-85791502D01*
X93424997Y-85820501D01*
X93540722Y-85915474D01*
X93672751Y-85986046D01*
X93816012Y-86029503D01*
X93927665Y-86040500D01*
X93927674Y-86040500D01*
X93964997Y-86044176D01*
X94002320Y-86040500D01*
X98068678Y-86040500D01*
X98106000Y-86044176D01*
X98143322Y-86040500D01*
X98143333Y-86040500D01*
X98254986Y-86029503D01*
X98398247Y-85986046D01*
X98530276Y-85915474D01*
X98646001Y-85820501D01*
X98669804Y-85791497D01*
X99084114Y-85377188D01*
X99266665Y-85413500D01*
X99549335Y-85413500D01*
X99826574Y-85358353D01*
X100087727Y-85250180D01*
X100322759Y-85093137D01*
X100522637Y-84893259D01*
X100678000Y-84660741D01*
X100833363Y-84893259D01*
X101033241Y-85093137D01*
X101268273Y-85250180D01*
X101529426Y-85358353D01*
X101806665Y-85413500D01*
X102089335Y-85413500D01*
X102366574Y-85358353D01*
X102627727Y-85250180D01*
X102862759Y-85093137D01*
X103062637Y-84893259D01*
X103218000Y-84660741D01*
X103373363Y-84893259D01*
X103573241Y-85093137D01*
X103808273Y-85250180D01*
X104069426Y-85358353D01*
X104346665Y-85413500D01*
X104629335Y-85413500D01*
X104906574Y-85358353D01*
X105167727Y-85250180D01*
X105402759Y-85093137D01*
X105602637Y-84893259D01*
X105758000Y-84660741D01*
X105913363Y-84893259D01*
X106113241Y-85093137D01*
X106348273Y-85250180D01*
X106609426Y-85358353D01*
X106886665Y-85413500D01*
X107169335Y-85413500D01*
X107446574Y-85358353D01*
X107707727Y-85250180D01*
X107942759Y-85093137D01*
X108142637Y-84893259D01*
X108299680Y-84658227D01*
X108407853Y-84397074D01*
X108463000Y-84119835D01*
X108463000Y-83837165D01*
X108407853Y-83559926D01*
X108299680Y-83298773D01*
X108142637Y-83063741D01*
X107942759Y-82863863D01*
X107707727Y-82706820D01*
X107446574Y-82598647D01*
X107169335Y-82543500D01*
X106886665Y-82543500D01*
X106609426Y-82598647D01*
X106348273Y-82706820D01*
X106113241Y-82863863D01*
X105913363Y-83063741D01*
X105758000Y-83296259D01*
X105602637Y-83063741D01*
X105402759Y-82863863D01*
X105167727Y-82706820D01*
X104906574Y-82598647D01*
X104629335Y-82543500D01*
X104346665Y-82543500D01*
X104069426Y-82598647D01*
X103808273Y-82706820D01*
X103573241Y-82863863D01*
X103373363Y-83063741D01*
X103218000Y-83296259D01*
X103062637Y-83063741D01*
X102862759Y-82863863D01*
X102627727Y-82706820D01*
X102366574Y-82598647D01*
X102089335Y-82543500D01*
X101806665Y-82543500D01*
X101529426Y-82598647D01*
X101268273Y-82706820D01*
X101033241Y-82863863D01*
X100833363Y-83063741D01*
X100678000Y-83296259D01*
X100522637Y-83063741D01*
X100322759Y-82863863D01*
X100087727Y-82706820D01*
X99826574Y-82598647D01*
X99549335Y-82543500D01*
X99266665Y-82543500D01*
X98989426Y-82598647D01*
X98728273Y-82706820D01*
X98493241Y-82863863D01*
X98293363Y-83063741D01*
X98138000Y-83296259D01*
X97982637Y-83063741D01*
X97782759Y-82863863D01*
X97547727Y-82706820D01*
X97286574Y-82598647D01*
X97009335Y-82543500D01*
X96726665Y-82543500D01*
X96544114Y-82579812D01*
X94061044Y-80096743D01*
X94037241Y-80067739D01*
X93921516Y-79972766D01*
X93789487Y-79902194D01*
X93646226Y-79858737D01*
X93534573Y-79847740D01*
X93534562Y-79847740D01*
X93497240Y-79844064D01*
X93459918Y-79847740D01*
X69112953Y-79847740D01*
X67186510Y-77921299D01*
X67186510Y-75858316D01*
X67807000Y-75858316D01*
X67807000Y-76160684D01*
X67865989Y-76457243D01*
X67981701Y-76736595D01*
X68149688Y-76988005D01*
X68363495Y-77201812D01*
X68614905Y-77369799D01*
X68894257Y-77485511D01*
X69190816Y-77544500D01*
X69493184Y-77544500D01*
X69789743Y-77485511D01*
X70069095Y-77369799D01*
X70320505Y-77201812D01*
X70534312Y-76988005D01*
X70702299Y-76736595D01*
X70818011Y-76457243D01*
X70877000Y-76160684D01*
X70877000Y-75858316D01*
X70818011Y-75561757D01*
X70702299Y-75282405D01*
X70586768Y-75109500D01*
X75423928Y-75109500D01*
X75423928Y-76909500D01*
X75436188Y-77033982D01*
X75472498Y-77153680D01*
X75531463Y-77263994D01*
X75610815Y-77360685D01*
X75707506Y-77440037D01*
X75817820Y-77499002D01*
X75937518Y-77535312D01*
X76062000Y-77547572D01*
X77862000Y-77547572D01*
X77986482Y-77535312D01*
X78106180Y-77499002D01*
X78216494Y-77440037D01*
X78313185Y-77360685D01*
X78392537Y-77263994D01*
X78451502Y-77153680D01*
X78487812Y-77033982D01*
X78500072Y-76909500D01*
X78500072Y-75109500D01*
X78487812Y-74985018D01*
X78451502Y-74865320D01*
X78392537Y-74755006D01*
X78313185Y-74658315D01*
X78216494Y-74578963D01*
X78106180Y-74519998D01*
X77986482Y-74483688D01*
X77862000Y-74471428D01*
X76062000Y-74471428D01*
X75937518Y-74483688D01*
X75817820Y-74519998D01*
X75707506Y-74578963D01*
X75610815Y-74658315D01*
X75531463Y-74755006D01*
X75472498Y-74865320D01*
X75436188Y-74985018D01*
X75423928Y-75109500D01*
X70586768Y-75109500D01*
X70534312Y-75030995D01*
X70320505Y-74817188D01*
X70069095Y-74649201D01*
X69789743Y-74533489D01*
X69493184Y-74474500D01*
X69190816Y-74474500D01*
X68894257Y-74533489D01*
X68614905Y-74649201D01*
X68363495Y-74817188D01*
X68149688Y-75030995D01*
X67981701Y-75282405D01*
X67865989Y-75561757D01*
X67807000Y-75858316D01*
X67186510Y-75858316D01*
X67186510Y-72823500D01*
X87044428Y-72823500D01*
X87044428Y-74623500D01*
X87056688Y-74747982D01*
X87092998Y-74867680D01*
X87151963Y-74977994D01*
X87231315Y-75074685D01*
X87328006Y-75154037D01*
X87438320Y-75213002D01*
X87558018Y-75249312D01*
X87682500Y-75261572D01*
X89482500Y-75261572D01*
X89606982Y-75249312D01*
X89726680Y-75213002D01*
X89836994Y-75154037D01*
X89933685Y-75074685D01*
X90013037Y-74977994D01*
X90072002Y-74867680D01*
X90108312Y-74747982D01*
X90120572Y-74623500D01*
X90120572Y-73572316D01*
X94667500Y-73572316D01*
X94667500Y-73874684D01*
X94726489Y-74171243D01*
X94842201Y-74450595D01*
X95010188Y-74702005D01*
X95223995Y-74915812D01*
X95475405Y-75083799D01*
X95754757Y-75199511D01*
X96051316Y-75258500D01*
X96353684Y-75258500D01*
X96650243Y-75199511D01*
X96929595Y-75083799D01*
X97181005Y-74915812D01*
X97394812Y-74702005D01*
X97562799Y-74450595D01*
X97678511Y-74171243D01*
X97737500Y-73874684D01*
X97737500Y-73572316D01*
X97678511Y-73275757D01*
X97562799Y-72996405D01*
X97394812Y-72744995D01*
X97181005Y-72531188D01*
X96929595Y-72363201D01*
X96650243Y-72247489D01*
X96353684Y-72188500D01*
X96051316Y-72188500D01*
X95754757Y-72247489D01*
X95475405Y-72363201D01*
X95223995Y-72531188D01*
X95010188Y-72744995D01*
X94842201Y-72996405D01*
X94726489Y-73275757D01*
X94667500Y-73572316D01*
X90120572Y-73572316D01*
X90120572Y-72823500D01*
X90108312Y-72699018D01*
X90072002Y-72579320D01*
X90013037Y-72469006D01*
X89933685Y-72372315D01*
X89836994Y-72292963D01*
X89726680Y-72233998D01*
X89606982Y-72197688D01*
X89482500Y-72185428D01*
X87682500Y-72185428D01*
X87558018Y-72197688D01*
X87438320Y-72233998D01*
X87328006Y-72292963D01*
X87231315Y-72372315D01*
X87151963Y-72469006D01*
X87092998Y-72579320D01*
X87056688Y-72699018D01*
X87044428Y-72823500D01*
X67186510Y-72823500D01*
X67186510Y-68597165D01*
X70033000Y-68597165D01*
X70033000Y-68879835D01*
X70088147Y-69157074D01*
X70196320Y-69418227D01*
X70353363Y-69653259D01*
X70553241Y-69853137D01*
X70788273Y-70010180D01*
X71049426Y-70118353D01*
X71326665Y-70173500D01*
X71609335Y-70173500D01*
X71886574Y-70118353D01*
X72147727Y-70010180D01*
X72382759Y-69853137D01*
X72582637Y-69653259D01*
X72739680Y-69418227D01*
X72744067Y-69407635D01*
X72855615Y-69593631D01*
X73044586Y-69802019D01*
X73270580Y-69969537D01*
X73524913Y-70089746D01*
X73658961Y-70130404D01*
X73881000Y-70008415D01*
X73881000Y-68865500D01*
X73861000Y-68865500D01*
X73861000Y-68611500D01*
X73881000Y-68611500D01*
X73881000Y-67468585D01*
X73658961Y-67346596D01*
X73524913Y-67387254D01*
X73270580Y-67507463D01*
X73044586Y-67674981D01*
X72855615Y-67883369D01*
X72744067Y-68069365D01*
X72739680Y-68058773D01*
X72582637Y-67823741D01*
X72382759Y-67623863D01*
X72147727Y-67466820D01*
X71886574Y-67358647D01*
X71609335Y-67303500D01*
X71326665Y-67303500D01*
X71049426Y-67358647D01*
X70788273Y-67466820D01*
X70553241Y-67623863D01*
X70353363Y-67823741D01*
X70196320Y-68058773D01*
X70088147Y-68319926D01*
X70033000Y-68597165D01*
X67186510Y-68597165D01*
X67186510Y-67416343D01*
X67190187Y-67379010D01*
X67175513Y-67230024D01*
X67132056Y-67086763D01*
X67061484Y-66954734D01*
X66990309Y-66868007D01*
X66966511Y-66839009D01*
X66937513Y-66815211D01*
X65741718Y-65619417D01*
X65660680Y-65423773D01*
X65503637Y-65188741D01*
X65303759Y-64988863D01*
X65068727Y-64831820D01*
X65047212Y-64822908D01*
X79311500Y-64822908D01*
X79311500Y-65098092D01*
X79365186Y-65367990D01*
X79470495Y-65622227D01*
X79623380Y-65851035D01*
X79817965Y-66045620D01*
X80046773Y-66198505D01*
X80301010Y-66303814D01*
X80570908Y-66357500D01*
X80846092Y-66357500D01*
X81115990Y-66303814D01*
X81370227Y-66198505D01*
X81599035Y-66045620D01*
X81793620Y-65851035D01*
X81946505Y-65622227D01*
X82051814Y-65367990D01*
X82105500Y-65098092D01*
X82105500Y-64822908D01*
X95059500Y-64822908D01*
X95059500Y-65098092D01*
X95113186Y-65367990D01*
X95218495Y-65622227D01*
X95371380Y-65851035D01*
X95565965Y-66045620D01*
X95794773Y-66198505D01*
X96049010Y-66303814D01*
X96318908Y-66357500D01*
X96594092Y-66357500D01*
X96863990Y-66303814D01*
X97118227Y-66198505D01*
X97347035Y-66045620D01*
X97541620Y-65851035D01*
X97694505Y-65622227D01*
X97799814Y-65367990D01*
X97853500Y-65098092D01*
X97853500Y-64822908D01*
X97799814Y-64553010D01*
X97694505Y-64298773D01*
X97541620Y-64069965D01*
X97347035Y-63875380D01*
X97118227Y-63722495D01*
X96863990Y-63617186D01*
X96594092Y-63563500D01*
X96318908Y-63563500D01*
X96049010Y-63617186D01*
X95794773Y-63722495D01*
X95565965Y-63875380D01*
X95371380Y-64069965D01*
X95218495Y-64298773D01*
X95113186Y-64553010D01*
X95059500Y-64822908D01*
X82105500Y-64822908D01*
X82051814Y-64553010D01*
X81946505Y-64298773D01*
X81793620Y-64069965D01*
X81599035Y-63875380D01*
X81370227Y-63722495D01*
X81115990Y-63617186D01*
X80846092Y-63563500D01*
X80570908Y-63563500D01*
X80301010Y-63617186D01*
X80046773Y-63722495D01*
X79817965Y-63875380D01*
X79623380Y-64069965D01*
X79470495Y-64298773D01*
X79365186Y-64553010D01*
X79311500Y-64822908D01*
X65047212Y-64822908D01*
X64807574Y-64723647D01*
X64530335Y-64668500D01*
X64247665Y-64668500D01*
X63970426Y-64723647D01*
X63709273Y-64831820D01*
X63474241Y-64988863D01*
X63274363Y-65188741D01*
X63117320Y-65423773D01*
X63009147Y-65684926D01*
X62954000Y-65962165D01*
X58780028Y-65962165D01*
X58780028Y-65610278D01*
X60375797Y-64014510D01*
X71351610Y-64014510D01*
X71399990Y-64019275D01*
X71448370Y-64014510D01*
X71593084Y-64000257D01*
X71778757Y-63943934D01*
X71949874Y-63852470D01*
X72099860Y-63729380D01*
X72130706Y-63691794D01*
X74661942Y-61160558D01*
X74688244Y-61171453D01*
X75100721Y-61253500D01*
X75521279Y-61253500D01*
X75933756Y-61171453D01*
X76322302Y-61010512D01*
X76671983Y-60776863D01*
X76969363Y-60479483D01*
X77203012Y-60129802D01*
X77363953Y-59741256D01*
X77446000Y-59328779D01*
X77446000Y-58908221D01*
X77363953Y-58495744D01*
X77203012Y-58107198D01*
X76969363Y-57757517D01*
X76671983Y-57460137D01*
X76322302Y-57226488D01*
X75933756Y-57065547D01*
X75521279Y-56983500D01*
X75100721Y-56983500D01*
X74688244Y-57065547D01*
X74299698Y-57226488D01*
X73950017Y-57460137D01*
X73652637Y-57757517D01*
X73418988Y-58107198D01*
X73258047Y-58495744D01*
X73176000Y-58908221D01*
X73176000Y-59328779D01*
X73258047Y-59741256D01*
X73268942Y-59767558D01*
X72363727Y-60672773D01*
X72369072Y-60618500D01*
X72369072Y-57618500D01*
X72356812Y-57494018D01*
X72320502Y-57374320D01*
X72261537Y-57264006D01*
X72182185Y-57167315D01*
X72085494Y-57087963D01*
X71975180Y-57028998D01*
X71855482Y-56992688D01*
X71731000Y-56980428D01*
X68731000Y-56980428D01*
X68606518Y-56992688D01*
X68486820Y-57028998D01*
X68376506Y-57087963D01*
X68279815Y-57167315D01*
X68200463Y-57264006D01*
X68141498Y-57374320D01*
X68105188Y-57494018D01*
X68092928Y-57618500D01*
X68092928Y-59863572D01*
X66812000Y-61144500D01*
X65838826Y-61144500D01*
X66162302Y-61010512D01*
X66511983Y-60776863D01*
X66809363Y-60479483D01*
X67043012Y-60129802D01*
X67203953Y-59741256D01*
X67286000Y-59328779D01*
X67286000Y-58908221D01*
X67203953Y-58495744D01*
X67043012Y-58107198D01*
X66809363Y-57757517D01*
X66511983Y-57460137D01*
X66162302Y-57226488D01*
X65773756Y-57065547D01*
X65361279Y-56983500D01*
X64940721Y-56983500D01*
X64528244Y-57065547D01*
X64139698Y-57226488D01*
X63790017Y-57460137D01*
X63492637Y-57757517D01*
X63258988Y-58107198D01*
X63098047Y-58495744D01*
X63050196Y-58736306D01*
X62209072Y-59577430D01*
X62209072Y-57618500D01*
X62196812Y-57494018D01*
X62160502Y-57374320D01*
X62101537Y-57264006D01*
X62022185Y-57167315D01*
X61925494Y-57087963D01*
X61815180Y-57028998D01*
X61695482Y-56992688D01*
X61571000Y-56980428D01*
X58571000Y-56980428D01*
X58446518Y-56992688D01*
X58326820Y-57028998D01*
X58216506Y-57087963D01*
X58119815Y-57167315D01*
X58040463Y-57264006D01*
X57981498Y-57374320D01*
X57945188Y-57494018D01*
X57932928Y-57618500D01*
X57932928Y-58133500D01*
X57654379Y-58133500D01*
X57605999Y-58128735D01*
X57412905Y-58147753D01*
X57369691Y-58160862D01*
X57227233Y-58204076D01*
X57056116Y-58295540D01*
X56906130Y-58418630D01*
X56875284Y-58456216D01*
X54432716Y-60898784D01*
X54395130Y-60929630D01*
X54272040Y-61079616D01*
X54199635Y-61215077D01*
X54180576Y-61250734D01*
X54124253Y-61436407D01*
X54105235Y-61629500D01*
X54110000Y-61677880D01*
X54110001Y-68721498D01*
X52683198Y-70148302D01*
X52603759Y-70068863D01*
X52371241Y-69913500D01*
X52603759Y-69758137D01*
X52803637Y-69558259D01*
X52960680Y-69323227D01*
X53068853Y-69062074D01*
X53124000Y-68784835D01*
X53124000Y-68502165D01*
X53068853Y-68224926D01*
X52960680Y-67963773D01*
X52803637Y-67728741D01*
X52605039Y-67530143D01*
X52613482Y-67529312D01*
X52733180Y-67493002D01*
X52843494Y-67434037D01*
X52940185Y-67354685D01*
X53019537Y-67257994D01*
X53078502Y-67147680D01*
X53114812Y-67027982D01*
X53127072Y-66903500D01*
X53124000Y-66389250D01*
X52965250Y-66230500D01*
X51816000Y-66230500D01*
X51816000Y-66250500D01*
X51562000Y-66250500D01*
X51562000Y-66230500D01*
X50412750Y-66230500D01*
X50254000Y-66389250D01*
X50250928Y-66903500D01*
X49755000Y-66903500D01*
X49755000Y-65303500D01*
X50250928Y-65303500D01*
X50254000Y-65817750D01*
X50412750Y-65976500D01*
X51562000Y-65976500D01*
X51562000Y-64827250D01*
X51816000Y-64827250D01*
X51816000Y-65976500D01*
X52965250Y-65976500D01*
X53124000Y-65817750D01*
X53127072Y-65303500D01*
X53114812Y-65179018D01*
X53078502Y-65059320D01*
X53019537Y-64949006D01*
X52940185Y-64852315D01*
X52843494Y-64772963D01*
X52733180Y-64713998D01*
X52613482Y-64677688D01*
X52489000Y-64665428D01*
X51974750Y-64668500D01*
X51816000Y-64827250D01*
X51562000Y-64827250D01*
X51403250Y-64668500D01*
X50889000Y-64665428D01*
X50764518Y-64677688D01*
X50644820Y-64713998D01*
X50534506Y-64772963D01*
X50437815Y-64852315D01*
X50358463Y-64949006D01*
X50299498Y-65059320D01*
X50263188Y-65179018D01*
X50250928Y-65303500D01*
X49755000Y-65303500D01*
X49755000Y-56409372D01*
X50360000Y-56409372D01*
X50360000Y-56849628D01*
X50445890Y-57281425D01*
X50614369Y-57688169D01*
X50858962Y-58054229D01*
X51170271Y-58365538D01*
X51536331Y-58610131D01*
X51943075Y-58778610D01*
X52374872Y-58864500D01*
X52815128Y-58864500D01*
X53246925Y-58778610D01*
X53653669Y-58610131D01*
X54019729Y-58365538D01*
X54331038Y-58054229D01*
X54575631Y-57688169D01*
X54744110Y-57281425D01*
X54830000Y-56849628D01*
X54830000Y-56409372D01*
X54790455Y-56210565D01*
X79922540Y-56210565D01*
X79989520Y-56450656D01*
X80238548Y-56567756D01*
X80505635Y-56634023D01*
X80780517Y-56646910D01*
X81052633Y-56605922D01*
X81311523Y-56512636D01*
X81427480Y-56450656D01*
X81494460Y-56210565D01*
X81430960Y-56147065D01*
X95670540Y-56147065D01*
X95737520Y-56387156D01*
X95986548Y-56504256D01*
X96253635Y-56570523D01*
X96528517Y-56583410D01*
X96800633Y-56542422D01*
X97059523Y-56449136D01*
X97133916Y-56409372D01*
X109360000Y-56409372D01*
X109360000Y-56849628D01*
X109445890Y-57281425D01*
X109614369Y-57688169D01*
X109858962Y-58054229D01*
X110170271Y-58365538D01*
X110536331Y-58610131D01*
X110943075Y-58778610D01*
X111374872Y-58864500D01*
X111815128Y-58864500D01*
X112246925Y-58778610D01*
X112653669Y-58610131D01*
X113019729Y-58365538D01*
X113331038Y-58054229D01*
X113575631Y-57688169D01*
X113744110Y-57281425D01*
X113830000Y-56849628D01*
X113830000Y-56409372D01*
X113744110Y-55977575D01*
X113575631Y-55570831D01*
X113331038Y-55204771D01*
X113019729Y-54893462D01*
X112653669Y-54648869D01*
X112246925Y-54480390D01*
X111815128Y-54394500D01*
X111374872Y-54394500D01*
X110943075Y-54480390D01*
X110536331Y-54648869D01*
X110170271Y-54893462D01*
X109858962Y-55204771D01*
X109614369Y-55570831D01*
X109445890Y-55977575D01*
X109360000Y-56409372D01*
X97133916Y-56409372D01*
X97175480Y-56387156D01*
X97242460Y-56147065D01*
X96456500Y-55361105D01*
X95670540Y-56147065D01*
X81430960Y-56147065D01*
X80708500Y-55424605D01*
X79922540Y-56210565D01*
X54790455Y-56210565D01*
X54744110Y-55977575D01*
X54575631Y-55570831D01*
X54406039Y-55317017D01*
X79306590Y-55317017D01*
X79347578Y-55589133D01*
X79440864Y-55848023D01*
X79502844Y-55963980D01*
X79742935Y-56030960D01*
X80528895Y-55245000D01*
X80888105Y-55245000D01*
X81674065Y-56030960D01*
X81914156Y-55963980D01*
X82031256Y-55714952D01*
X82097523Y-55447865D01*
X82106634Y-55253517D01*
X95054590Y-55253517D01*
X95095578Y-55525633D01*
X95188864Y-55784523D01*
X95250844Y-55900480D01*
X95490935Y-55967460D01*
X96276895Y-55181500D01*
X96636105Y-55181500D01*
X97422065Y-55967460D01*
X97662156Y-55900480D01*
X97779256Y-55651452D01*
X97845523Y-55384365D01*
X97858410Y-55109483D01*
X97817422Y-54837367D01*
X97724136Y-54578477D01*
X97662156Y-54462520D01*
X97422065Y-54395540D01*
X96636105Y-55181500D01*
X96276895Y-55181500D01*
X95490935Y-54395540D01*
X95250844Y-54462520D01*
X95133744Y-54711548D01*
X95067477Y-54978635D01*
X95054590Y-55253517D01*
X82106634Y-55253517D01*
X82110410Y-55172983D01*
X82069422Y-54900867D01*
X81976136Y-54641977D01*
X81914156Y-54526020D01*
X81674065Y-54459040D01*
X80888105Y-55245000D01*
X80528895Y-55245000D01*
X79742935Y-54459040D01*
X79502844Y-54526020D01*
X79385744Y-54775048D01*
X79319477Y-55042135D01*
X79306590Y-55317017D01*
X54406039Y-55317017D01*
X54331038Y-55204771D01*
X54019729Y-54893462D01*
X53653669Y-54648869D01*
X53246925Y-54480390D01*
X52815128Y-54394500D01*
X52374872Y-54394500D01*
X51943075Y-54480390D01*
X51536331Y-54648869D01*
X51170271Y-54893462D01*
X50858962Y-55204771D01*
X50614369Y-55570831D01*
X50445890Y-55977575D01*
X50360000Y-56409372D01*
X49755000Y-56409372D01*
X49755000Y-54279435D01*
X79922540Y-54279435D01*
X80708500Y-55065395D01*
X81494460Y-54279435D01*
X81427480Y-54039344D01*
X81178452Y-53922244D01*
X80911365Y-53855977D01*
X80636483Y-53843090D01*
X80364367Y-53884078D01*
X80105477Y-53977364D01*
X79989520Y-54039344D01*
X79922540Y-54279435D01*
X49755000Y-54279435D01*
X49755000Y-53789500D01*
X96318691Y-53789500D01*
X96112367Y-53820578D01*
G37*
X96112367Y-53820578D02*
X95853477Y-53913864D01*
X95737520Y-53975844D01*
X95670540Y-54215935D01*
X96456500Y-55001895D01*
X97242460Y-54215935D01*
X97175480Y-53975844D01*
X96926452Y-53858744D01*
X96659365Y-53792477D01*
X96595865Y-53789500D01*
X114435001Y-53789500D01*
X114435001Y-62988835D01*
X114365180Y-62820273D01*
X114208137Y-62585241D01*
X114008259Y-62385363D01*
X113773227Y-62228320D01*
X113512074Y-62120147D01*
X113234835Y-62065000D01*
X112952165Y-62065000D01*
X112674926Y-62120147D01*
X112413773Y-62228320D01*
X112178741Y-62385363D01*
X112044703Y-62519401D01*
X107643804Y-58118503D01*
X107620001Y-58089499D01*
X107504276Y-57994526D01*
X107372247Y-57923954D01*
X107228986Y-57880497D01*
X107117333Y-57869500D01*
X107117322Y-57869500D01*
X107080000Y-57865824D01*
X107042678Y-57869500D01*
X103782976Y-57869500D01*
X103690218Y-57730678D01*
X103493822Y-57534282D01*
X103262885Y-57379975D01*
X103006282Y-57273686D01*
X102733873Y-57219500D01*
X102456127Y-57219500D01*
X102183718Y-57273686D01*
X101927115Y-57379975D01*
X101696178Y-57534282D01*
X101499782Y-57730678D01*
X101407024Y-57869500D01*
X101173825Y-57869500D01*
X101136500Y-57865824D01*
X101099175Y-57869500D01*
X101099167Y-57869500D01*
X100987514Y-57880497D01*
X100844253Y-57923954D01*
X100712224Y-57994526D01*
X100596499Y-58089499D01*
X100572701Y-58118497D01*
X98483997Y-60207202D01*
X98454999Y-60231000D01*
X98431201Y-60259998D01*
X98431200Y-60259999D01*
X98360025Y-60346725D01*
X98289453Y-60478755D01*
X98281125Y-60506211D01*
X98247028Y-60618618D01*
X98245997Y-60622016D01*
X98231323Y-60771001D01*
X98235000Y-60808333D01*
X98234999Y-67911089D01*
X98138000Y-68056259D01*
X97982637Y-67823741D01*
X97782759Y-67623863D01*
X97547727Y-67466820D01*
X97286574Y-67358647D01*
X97009335Y-67303500D01*
X96726665Y-67303500D01*
X96449426Y-67358647D01*
X96188273Y-67466820D01*
X95953241Y-67623863D01*
X95753363Y-67823741D01*
X95598000Y-68056259D01*
X95442637Y-67823741D01*
X95242759Y-67623863D01*
X95007727Y-67466820D01*
X94746574Y-67358647D01*
X94469335Y-67303500D01*
X94186665Y-67303500D01*
X93909426Y-67358647D01*
X93648273Y-67466820D01*
X93413241Y-67623863D01*
X93213363Y-67823741D01*
X93058000Y-68056259D01*
X92902637Y-67823741D01*
X92702759Y-67623863D01*
X92467727Y-67466820D01*
X92206574Y-67358647D01*
X91929335Y-67303500D01*
X91646665Y-67303500D01*
X91369426Y-67358647D01*
X91108273Y-67466820D01*
X90873241Y-67623863D01*
X90673363Y-67823741D01*
X90518000Y-68056259D01*
X90362637Y-67823741D01*
X90162759Y-67623863D01*
X89927727Y-67466820D01*
X89666574Y-67358647D01*
X89389335Y-67303500D01*
X89106665Y-67303500D01*
X88829426Y-67358647D01*
X88568273Y-67466820D01*
X88333241Y-67623863D01*
X88133363Y-67823741D01*
X87978000Y-68056259D01*
X87822637Y-67823741D01*
X87622759Y-67623863D01*
X87387727Y-67466820D01*
X87126574Y-67358647D01*
X86849335Y-67303500D01*
X86566665Y-67303500D01*
X86289426Y-67358647D01*
X86028273Y-67466820D01*
X85793241Y-67623863D01*
X85593363Y-67823741D01*
X85438000Y-68056259D01*
X85282637Y-67823741D01*
X85082759Y-67623863D01*
X84847727Y-67466820D01*
X84586574Y-67358647D01*
X84309335Y-67303500D01*
X84026665Y-67303500D01*
X83749426Y-67358647D01*
X83488273Y-67466820D01*
X83253241Y-67623863D01*
X83053363Y-67823741D01*
X82898000Y-68056259D01*
X82742637Y-67823741D01*
X82542759Y-67623863D01*
X82307727Y-67466820D01*
X82046574Y-67358647D01*
X81769335Y-67303500D01*
X81486665Y-67303500D01*
X81209426Y-67358647D01*
X80948273Y-67466820D01*
X80713241Y-67623863D01*
X80513363Y-67823741D01*
X80358000Y-68056259D01*
X80202637Y-67823741D01*
X80002759Y-67623863D01*
X79767727Y-67466820D01*
X79506574Y-67358647D01*
X79229335Y-67303500D01*
X78946665Y-67303500D01*
X78669426Y-67358647D01*
X78408273Y-67466820D01*
X78173241Y-67623863D01*
X77973363Y-67823741D01*
X77818000Y-68056259D01*
X77662637Y-67823741D01*
X77462759Y-67623863D01*
X77227727Y-67466820D01*
X76966574Y-67358647D01*
X76689335Y-67303500D01*
X76406665Y-67303500D01*
X76129426Y-67358647D01*
X75868273Y-67466820D01*
X75633241Y-67623863D01*
X75433363Y-67823741D01*
X75276320Y-68058773D01*
X75271933Y-68069365D01*
X75160385Y-67883369D01*
X74971414Y-67674981D01*
X74745420Y-67507463D01*
X74491087Y-67387254D01*
X74357039Y-67346596D01*
X74135000Y-67468585D01*
X74135000Y-68611500D01*
X74155000Y-68611500D01*
X74155000Y-68865500D01*
X74135000Y-68865500D01*
X74135000Y-70008415D01*
X74357039Y-70130404D01*
X74491087Y-70089746D01*
X74745420Y-69969537D01*
X74971414Y-69802019D01*
X75160385Y-69593631D01*
X75271933Y-69407635D01*
X75276320Y-69418227D01*
X75433363Y-69653259D01*
X75633241Y-69853137D01*
X75868273Y-70010180D01*
X76129426Y-70118353D01*
X76406665Y-70173500D01*
X76689335Y-70173500D01*
X76966574Y-70118353D01*
X77227727Y-70010180D01*
X77462759Y-69853137D01*
X77662637Y-69653259D01*
X77818000Y-69420741D01*
X77973363Y-69653259D01*
X78173241Y-69853137D01*
X78408273Y-70010180D01*
X78669426Y-70118353D01*
X78946665Y-70173500D01*
X79229335Y-70173500D01*
X79506574Y-70118353D01*
X79767727Y-70010180D01*
X80002759Y-69853137D01*
X80202637Y-69653259D01*
X80358000Y-69420741D01*
X80513363Y-69653259D01*
X80713241Y-69853137D01*
X80948273Y-70010180D01*
X81209426Y-70118353D01*
X81486665Y-70173500D01*
X81769335Y-70173500D01*
X82046574Y-70118353D01*
X82307727Y-70010180D01*
X82542759Y-69853137D01*
X82742637Y-69653259D01*
X82898000Y-69420741D01*
X83053363Y-69653259D01*
X83253241Y-69853137D01*
X83488273Y-70010180D01*
X83749426Y-70118353D01*
X84026665Y-70173500D01*
X84309335Y-70173500D01*
X84586574Y-70118353D01*
X84847727Y-70010180D01*
X85082759Y-69853137D01*
X85282637Y-69653259D01*
X85438000Y-69420741D01*
X85593363Y-69653259D01*
X85793241Y-69853137D01*
X86028273Y-70010180D01*
X86289426Y-70118353D01*
X86566665Y-70173500D01*
X86849335Y-70173500D01*
X87126574Y-70118353D01*
X87387727Y-70010180D01*
X87622759Y-69853137D01*
X87822637Y-69653259D01*
X87978000Y-69420741D01*
X88133363Y-69653259D01*
X88333241Y-69853137D01*
X88568273Y-70010180D01*
X88829426Y-70118353D01*
X89106665Y-70173500D01*
X89389335Y-70173500D01*
X89666574Y-70118353D01*
X89927727Y-70010180D01*
X90162759Y-69853137D01*
X90362637Y-69653259D01*
X90518000Y-69420741D01*
X90673363Y-69653259D01*
X90873241Y-69853137D01*
X91108273Y-70010180D01*
X91369426Y-70118353D01*
X91646665Y-70173500D01*
X91929335Y-70173500D01*
X92206574Y-70118353D01*
X92467727Y-70010180D01*
X92702759Y-69853137D01*
X92902637Y-69653259D01*
X93058000Y-69420741D01*
X93213363Y-69653259D01*
X93413241Y-69853137D01*
X93648273Y-70010180D01*
X93909426Y-70118353D01*
X94186665Y-70173500D01*
X94469335Y-70173500D01*
X94746574Y-70118353D01*
X95007727Y-70010180D01*
X95242759Y-69853137D01*
X95442637Y-69653259D01*
X95598000Y-69420741D01*
X95753363Y-69653259D01*
X95953241Y-69853137D01*
X96188273Y-70010180D01*
X96449426Y-70118353D01*
X96726665Y-70173500D01*
X97009335Y-70173500D01*
X97286574Y-70118353D01*
X97547727Y-70010180D01*
X97782759Y-69853137D01*
X97982637Y-69653259D01*
X98138000Y-69420741D01*
X98293363Y-69653259D01*
X98493241Y-69853137D01*
X98728273Y-70010180D01*
X98989426Y-70118353D01*
X99266665Y-70173500D01*
X99549335Y-70173500D01*
X99826574Y-70118353D01*
X100087727Y-70010180D01*
X100322759Y-69853137D01*
X100522637Y-69653259D01*
X100678000Y-69420741D01*
X100833363Y-69653259D01*
X101033241Y-69853137D01*
X101268273Y-70010180D01*
X101529426Y-70118353D01*
X101806665Y-70173500D01*
X102089335Y-70173500D01*
X102366574Y-70118353D01*
X102627727Y-70010180D01*
X102862759Y-69853137D01*
X103062637Y-69653259D01*
X103218000Y-69420741D01*
X103373363Y-69653259D01*
X103573241Y-69853137D01*
X103808273Y-70010180D01*
X104069426Y-70118353D01*
X104346665Y-70173500D01*
X104629335Y-70173500D01*
X104906574Y-70118353D01*
X105167727Y-70010180D01*
X105402759Y-69853137D01*
X105602637Y-69653259D01*
X105758000Y-69420741D01*
X105913363Y-69653259D01*
X106113241Y-69853137D01*
X106348273Y-70010180D01*
X106609426Y-70118353D01*
X106886665Y-70173500D01*
X107169335Y-70173500D01*
X107446574Y-70118353D01*
X107707727Y-70010180D01*
X107942759Y-69853137D01*
X108142637Y-69653259D01*
X108299680Y-69418227D01*
X108407853Y-69157074D01*
X108463000Y-68879835D01*
X108463000Y-68597165D01*
X108407853Y-68319926D01*
X108299680Y-68058773D01*
X108142637Y-67823741D01*
X107942759Y-67623863D01*
X107707727Y-67466820D01*
X107446574Y-67358647D01*
X107169335Y-67303500D01*
X106886665Y-67303500D01*
X106609426Y-67358647D01*
X106348273Y-67466820D01*
X106113241Y-67623863D01*
X105913363Y-67823741D01*
X105758000Y-68056259D01*
X105602637Y-67823741D01*
X105402759Y-67623863D01*
X105167727Y-67466820D01*
X104906574Y-67358647D01*
X104629335Y-67303500D01*
X104346665Y-67303500D01*
X104069426Y-67358647D01*
X103808273Y-67466820D01*
X103573241Y-67623863D01*
X103373363Y-67823741D01*
X103218000Y-68056259D01*
X103062637Y-67823741D01*
X102862759Y-67623863D01*
X102627727Y-67466820D01*
X102366574Y-67358647D01*
X102089335Y-67303500D01*
X101806665Y-67303500D01*
X101529426Y-67358647D01*
X101268273Y-67466820D01*
X101033241Y-67623863D01*
X100833363Y-67823741D01*
X100678000Y-68056259D01*
X100522637Y-67823741D01*
X100322759Y-67623863D01*
X100087727Y-67466820D01*
X99826574Y-67358647D01*
X99754999Y-67344410D01*
X99754999Y-64999493D01*
X99956127Y-65039500D01*
X100233873Y-65039500D01*
X100506282Y-64985314D01*
X100762885Y-64879025D01*
X100993822Y-64724718D01*
X101190218Y-64528322D01*
X101272953Y-64404500D01*
X103681928Y-64404500D01*
X103694188Y-64528982D01*
X103730498Y-64648680D01*
X103789463Y-64758994D01*
X103868815Y-64855685D01*
X103965506Y-64935037D01*
X104075820Y-64994002D01*
X104195518Y-65030312D01*
X104320000Y-65042572D01*
X104809250Y-65039500D01*
X104968000Y-64880750D01*
X104968000Y-63756500D01*
X105222000Y-63756500D01*
X105222000Y-64880750D01*
X105380750Y-65039500D01*
X105870000Y-65042572D01*
X105994482Y-65030312D01*
X106114180Y-64994002D01*
X106224494Y-64935037D01*
X106321185Y-64855685D01*
X106400537Y-64758994D01*
X106459502Y-64648680D01*
X106495812Y-64528982D01*
X106499385Y-64492702D01*
X107280403Y-64492702D01*
X107351986Y-64736671D01*
X107607496Y-64857571D01*
X107881684Y-64926300D01*
X108164012Y-64940217D01*
X108443630Y-64898787D01*
X108709792Y-64803603D01*
X108835014Y-64736671D01*
X108906597Y-64492702D01*
X108093500Y-63679605D01*
X107280403Y-64492702D01*
X106499385Y-64492702D01*
X106508072Y-64404500D01*
X106505000Y-63915250D01*
X106346250Y-63756500D01*
X105222000Y-63756500D01*
X104968000Y-63756500D01*
X103843750Y-63756500D01*
X103685000Y-63915250D01*
X103681928Y-64404500D01*
X101272953Y-64404500D01*
X101344525Y-64297385D01*
X101450814Y-64040782D01*
X101505000Y-63768373D01*
X101505000Y-63570512D01*
X106653283Y-63570512D01*
X106694713Y-63850130D01*
X106789897Y-64116292D01*
X106856829Y-64241514D01*
X107100798Y-64313097D01*
X107913895Y-63500000D01*
X108273105Y-63500000D01*
X109086202Y-64313097D01*
X109330171Y-64241514D01*
X109451071Y-63986004D01*
X109519800Y-63711816D01*
X109533717Y-63429488D01*
X109492287Y-63149870D01*
X109397103Y-62883708D01*
X109330171Y-62758486D01*
X109086202Y-62686903D01*
X108273105Y-63500000D01*
X107913895Y-63500000D01*
X107100798Y-62686903D01*
X106856829Y-62758486D01*
X106735929Y-63013996D01*
X106667200Y-63288184D01*
X106653283Y-63570512D01*
X101505000Y-63570512D01*
X101505000Y-63490627D01*
X101450814Y-63218218D01*
X101344525Y-62961615D01*
X101272954Y-62854500D01*
X103681928Y-62854500D01*
X103685000Y-63343750D01*
X103843750Y-63502500D01*
X104968000Y-63502500D01*
X104968000Y-62378250D01*
X105222000Y-62378250D01*
X105222000Y-63502500D01*
X106346250Y-63502500D01*
X106505000Y-63343750D01*
X106508072Y-62854500D01*
X106495812Y-62730018D01*
X106459502Y-62610320D01*
X106404435Y-62507298D01*
X107280403Y-62507298D01*
X108093500Y-63320395D01*
X108906597Y-62507298D01*
X108835014Y-62263329D01*
X108579504Y-62142429D01*
X108305316Y-62073700D01*
X108022988Y-62059783D01*
X107743370Y-62101213D01*
X107477208Y-62196397D01*
X107351986Y-62263329D01*
X107280403Y-62507298D01*
X106404435Y-62507298D01*
X106400537Y-62500006D01*
X106321185Y-62403315D01*
X106224494Y-62323963D01*
X106114180Y-62264998D01*
X105994482Y-62228688D01*
X105870000Y-62216428D01*
X105380750Y-62219500D01*
X105222000Y-62378250D01*
X104968000Y-62378250D01*
X104809250Y-62219500D01*
X104320000Y-62216428D01*
X104195518Y-62228688D01*
X104075820Y-62264998D01*
X103965506Y-62323963D01*
X103868815Y-62403315D01*
X103789463Y-62500006D01*
X103730498Y-62610320D01*
X103694188Y-62730018D01*
X103681928Y-62854500D01*
X101272954Y-62854500D01*
X101190218Y-62730678D01*
X100993822Y-62534282D01*
X100762885Y-62379975D01*
X100506282Y-62273686D01*
X100233873Y-62219500D01*
X99956127Y-62219500D01*
X99754999Y-62259507D01*
X99754999Y-61085802D01*
X101424759Y-59416043D01*
X101499782Y-59528322D01*
X101696178Y-59724718D01*
X101927115Y-59879025D01*
X102183718Y-59985314D01*
X102456127Y-60039500D01*
X102733873Y-60039500D01*
X103006282Y-59985314D01*
X103262885Y-59879025D01*
X103493822Y-59724718D01*
X103690218Y-59528322D01*
X103782976Y-59389500D01*
X106765199Y-59389500D01*
X111386701Y-64011003D01*
X111410499Y-64040001D01*
X111439497Y-64063799D01*
X111526223Y-64134974D01*
X111612537Y-64181110D01*
X111658253Y-64205546D01*
X111801514Y-64249003D01*
X111872800Y-64256024D01*
X111978863Y-64414759D01*
X112178741Y-64614637D01*
X112413773Y-64771680D01*
X112674926Y-64879853D01*
X112952165Y-64935000D01*
X113234835Y-64935000D01*
X113512074Y-64879853D01*
X113773227Y-64771680D01*
X114008259Y-64614637D01*
X114208137Y-64414759D01*
X114365180Y-64179727D01*
X114435001Y-64011165D01*
X114435000Y-95969500D01*
X49755000Y-95969500D01*
X49755000Y-92909372D01*
X50360000Y-92909372D01*
X50360000Y-93349628D01*
X50445890Y-93781425D01*
X50614369Y-94188169D01*
X50858962Y-94554229D01*
X51170271Y-94865538D01*
X51536331Y-95110131D01*
X51943075Y-95278610D01*
X52374872Y-95364500D01*
X52815128Y-95364500D01*
X53246925Y-95278610D01*
X53653669Y-95110131D01*
X54019729Y-94865538D01*
X54331038Y-94554229D01*
X54575631Y-94188169D01*
X54744110Y-93781425D01*
X54830000Y-93349628D01*
X54830000Y-92909372D01*
X109360000Y-92909372D01*
X109360000Y-93349628D01*
X109445890Y-93781425D01*
X109614369Y-94188169D01*
X109858962Y-94554229D01*
X110170271Y-94865538D01*
X110536331Y-95110131D01*
X110943075Y-95278610D01*
X111374872Y-95364500D01*
X111815128Y-95364500D01*
X112246925Y-95278610D01*
X112653669Y-95110131D01*
X113019729Y-94865538D01*
X113331038Y-94554229D01*
X113575631Y-94188169D01*
X113744110Y-93781425D01*
X113830000Y-93349628D01*
X113830000Y-92909372D01*
X113744110Y-92477575D01*
X113575631Y-92070831D01*
X113331038Y-91704771D01*
X113019729Y-91393462D01*
X112653669Y-91148869D01*
X112246925Y-90980390D01*
X111815128Y-90894500D01*
X111374872Y-90894500D01*
X110943075Y-90980390D01*
X110536331Y-91148869D01*
X110170271Y-91393462D01*
X109858962Y-91704771D01*
X109614369Y-92070831D01*
X109445890Y-92477575D01*
X109360000Y-92909372D01*
X54830000Y-92909372D01*
X54744110Y-92477575D01*
X54590262Y-92106153D01*
X57769952Y-92106153D01*
X57925962Y-92421714D01*
X58300745Y-92612520D01*
X58705551Y-92726544D01*
X59124824Y-92759402D01*
X59542451Y-92709834D01*
X59942383Y-92579743D01*
X60238038Y-92421714D01*
X60394048Y-92106153D01*
X59082000Y-90794105D01*
X57769952Y-92106153D01*
X54590262Y-92106153D01*
X54575631Y-92070831D01*
X54331038Y-91704771D01*
X54019729Y-91393462D01*
X53653669Y-91148869D01*
X53246925Y-90980390D01*
X52815128Y-90894500D01*
X52374872Y-90894500D01*
X51943075Y-90980390D01*
X51536331Y-91148869D01*
X51170271Y-91393462D01*
X50858962Y-91704771D01*
X50614369Y-92070831D01*
X50445890Y-92477575D01*
X50360000Y-92909372D01*
X49755000Y-92909372D01*
X49755000Y-90657324D01*
X56937098Y-90657324D01*
X56986666Y-91074951D01*
X57116757Y-91474883D01*
X57274786Y-91770538D01*
X57590347Y-91926548D01*
X58902395Y-90614500D01*
X59261605Y-90614500D01*
X60573653Y-91926548D01*
X60889214Y-91770538D01*
X61080020Y-91395755D01*
X61194044Y-90990949D01*
X61226902Y-90571676D01*
X61177334Y-90154049D01*
X61047243Y-89754117D01*
X60889214Y-89458462D01*
X60573653Y-89302452D01*
X59261605Y-90614500D01*
X58902395Y-90614500D01*
X57590347Y-89302452D01*
X57274786Y-89458462D01*
X57083980Y-89833245D01*
X56969956Y-90238051D01*
X56937098Y-90657324D01*
X49755000Y-90657324D01*
X49755000Y-89122847D01*
X57769952Y-89122847D01*
X59082000Y-90434895D01*
X60394048Y-89122847D01*
X60389922Y-89114500D01*
X62023928Y-89114500D01*
X62023928Y-92114500D01*
X62036188Y-92238982D01*
X62072498Y-92358680D01*
X62131463Y-92468994D01*
X62210815Y-92565685D01*
X62307506Y-92645037D01*
X62417820Y-92704002D01*
X62537518Y-92740312D01*
X62662000Y-92752572D01*
X65662000Y-92752572D01*
X65786482Y-92740312D01*
X65906180Y-92704002D01*
X66016494Y-92645037D01*
X66113185Y-92565685D01*
X66192537Y-92468994D01*
X66251502Y-92358680D01*
X66287812Y-92238982D01*
X66300072Y-92114500D01*
X66300072Y-89114500D01*
X66287812Y-88990018D01*
X66251502Y-88870320D01*
X66192537Y-88760006D01*
X66113185Y-88663315D01*
X66016494Y-88583963D01*
X65906180Y-88524998D01*
X65786482Y-88488688D01*
X65662000Y-88476428D01*
X62662000Y-88476428D01*
X62537518Y-88488688D01*
X62417820Y-88524998D01*
X62307506Y-88583963D01*
X62210815Y-88663315D01*
X62131463Y-88760006D01*
X62072498Y-88870320D01*
X62036188Y-88990018D01*
X62023928Y-89114500D01*
X60389922Y-89114500D01*
X60238038Y-88807286D01*
X59863255Y-88616480D01*
X59458449Y-88502456D01*
X59039176Y-88469598D01*
X58621549Y-88519166D01*
X58221617Y-88649257D01*
X57925962Y-88807286D01*
X57769952Y-89122847D01*
X49755000Y-89122847D01*
X49755000Y-83742165D01*
X50254000Y-83742165D01*
X50254000Y-84024835D01*
X50309147Y-84302074D01*
X50417320Y-84563227D01*
X50574363Y-84798259D01*
X50774241Y-84998137D01*
X51009273Y-85155180D01*
X51270426Y-85263353D01*
X51547665Y-85318500D01*
X51830335Y-85318500D01*
X52107574Y-85263353D01*
X52368727Y-85155180D01*
X52603759Y-84998137D01*
X52803637Y-84798259D01*
X52960680Y-84563227D01*
X53068853Y-84302074D01*
X53124000Y-84024835D01*
X53124000Y-83742165D01*
X53068853Y-83464926D01*
X52960680Y-83203773D01*
X52803637Y-82968741D01*
X52603759Y-82768863D01*
X52368727Y-82611820D01*
X52358135Y-82607433D01*
X52544131Y-82495885D01*
X52752519Y-82306914D01*
X52920037Y-82080920D01*
X53040246Y-81826587D01*
X53080904Y-81692539D01*
X52958915Y-81470500D01*
X51816000Y-81470500D01*
X51816000Y-81490500D01*
X51562000Y-81490500D01*
X51562000Y-81470500D01*
X50419085Y-81470500D01*
X50297096Y-81692539D01*
X50337754Y-81826587D01*
X50457963Y-82080920D01*
X50625481Y-82306914D01*
X50833869Y-82495885D01*
X51019865Y-82607433D01*
X51009273Y-82611820D01*
X50774241Y-82768863D01*
X50574363Y-82968741D01*
X50417320Y-83203773D01*
X50309147Y-83464926D01*
X50254000Y-83742165D01*
X49755000Y-83742165D01*
X49755000Y-66903500D01*
X50250928Y-66903500D01*
X50263188Y-67027982D01*
X50299498Y-67147680D01*
X50358463Y-67257994D01*
X50437815Y-67354685D01*
X50534506Y-67434037D01*
X50644820Y-67493002D01*
X50764518Y-67529312D01*
X50772961Y-67530143D01*
X50574363Y-67728741D01*
X50417320Y-67963773D01*
X50309147Y-68224926D01*
X50254000Y-68502165D01*
X50254000Y-68784835D01*
X50309147Y-69062074D01*
X50417320Y-69323227D01*
X50574363Y-69558259D01*
X50774241Y-69758137D01*
X51006759Y-69913500D01*
X50774241Y-70068863D01*
X50574363Y-70268741D01*
X50417320Y-70503773D01*
X50309147Y-70764926D01*
X50254000Y-71042165D01*
X50254000Y-71324835D01*
X50309147Y-71602074D01*
X50417320Y-71863227D01*
X50574363Y-72098259D01*
X50774241Y-72298137D01*
X51006759Y-72453500D01*
X50774241Y-72608863D01*
X50574363Y-72808741D01*
X50417320Y-73043773D01*
X50309147Y-73304926D01*
X50254000Y-73582165D01*
X50254000Y-73864835D01*
X50309147Y-74142074D01*
X50417320Y-74403227D01*
X50574363Y-74638259D01*
X50774241Y-74838137D01*
X51006759Y-74993500D01*
X50774241Y-75148863D01*
X50574363Y-75348741D01*
X50417320Y-75583773D01*
X50309147Y-75844926D01*
X50254000Y-76122165D01*
X50254000Y-76404835D01*
X50309147Y-76682074D01*
X50417320Y-76943227D01*
X50574363Y-77178259D01*
X50774241Y-77378137D01*
X51006759Y-77533500D01*
X50774241Y-77688863D01*
X50574363Y-77888741D01*
X50417320Y-78123773D01*
X50309147Y-78384926D01*
X50254000Y-78662165D01*
X50254000Y-78944835D01*
X50309147Y-79222074D01*
X50417320Y-79483227D01*
X50574363Y-79718259D01*
X50774241Y-79918137D01*
X51009273Y-80075180D01*
X51019865Y-80079567D01*
X50833869Y-80191115D01*
X50625481Y-80380086D01*
X50457963Y-80606080D01*
X50337754Y-80860413D01*
X50297096Y-80994461D01*
X50419085Y-81216500D01*
X51562000Y-81216500D01*
X51562000Y-81196500D01*
X51816000Y-81196500D01*
X51816000Y-81216500D01*
X52958915Y-81216500D01*
X53080904Y-80994461D01*
X53040246Y-80860413D01*
X52920037Y-80606080D01*
X52752519Y-80380086D01*
X52544131Y-80191115D01*
X52358135Y-80079567D01*
X52368727Y-80075180D01*
X52603759Y-79918137D01*
X52733396Y-79788500D01*
X52771990Y-79788500D01*
X52820370Y-79793265D01*
X52868750Y-79788500D01*
X53013464Y-79774247D01*
X53199137Y-79717924D01*
X53370254Y-79626460D01*
X53520240Y-79503370D01*
X53551086Y-79465784D01*
X55657294Y-77359576D01*
X55694880Y-77328730D01*
X55817970Y-77178744D01*
X55909434Y-77007627D01*
X55965757Y-76821954D01*
X55980010Y-76677240D01*
X55980010Y-76677239D01*
X55984775Y-76628861D01*
X55980010Y-76580481D01*
X55980010Y-74502471D01*
X58457312Y-72025168D01*
X58494898Y-71994322D01*
X58617988Y-71844336D01*
X58709452Y-71673219D01*
X58765775Y-71487546D01*
X58780028Y-71342832D01*
X58780028Y-71342831D01*
X58784793Y-71294452D01*
X58780028Y-71246072D01*
X58780028Y-65962165D01*
X62954000Y-65962165D01*
X62954000Y-66244835D01*
X63009147Y-66522074D01*
X63117320Y-66783227D01*
X63274363Y-67018259D01*
X63474241Y-67218137D01*
X63706759Y-67373500D01*
X63474241Y-67528863D01*
X63274363Y-67728741D01*
X63117320Y-67963773D01*
X63009147Y-68224926D01*
X62954000Y-68502165D01*
X62954000Y-68784835D01*
X63009147Y-69062074D01*
X63117320Y-69323227D01*
X63274363Y-69558259D01*
X63474241Y-69758137D01*
X63706759Y-69913500D01*
X63474241Y-70068863D01*
X63274363Y-70268741D01*
X63117320Y-70503773D01*
X63009147Y-70764926D01*
X62954000Y-71042165D01*
X62954000Y-71324835D01*
X63009147Y-71602074D01*
X63117320Y-71863227D01*
X63274363Y-72098259D01*
X63474241Y-72298137D01*
X63629001Y-72401544D01*
X63629000Y-72505456D01*
X63474241Y-72608863D01*
X63274363Y-72808741D01*
X63117320Y-73043773D01*
X63009147Y-73304926D01*
X62954000Y-73582165D01*
X62954000Y-73864835D01*
X63009147Y-74142074D01*
X63117320Y-74403227D01*
X63274363Y-74638259D01*
X63474241Y-74838137D01*
X63706759Y-74993500D01*
X63474241Y-75148863D01*
X63274363Y-75348741D01*
X63117320Y-75583773D01*
X63009147Y-75844926D01*
X62954000Y-76122165D01*
X62954000Y-76404835D01*
X63009147Y-76682074D01*
X63117320Y-76943227D01*
X63274363Y-77178259D01*
X63474241Y-77378137D01*
X63706759Y-77533500D01*
X63474241Y-77688863D01*
X63274363Y-77888741D01*
X63117320Y-78123773D01*
X63009147Y-78384926D01*
X62954000Y-78662165D01*
X62954000Y-78944835D01*
X63009147Y-79222074D01*
X63117320Y-79483227D01*
X63274363Y-79718259D01*
X63474241Y-79918137D01*
X63706759Y-80073500D01*
X63474241Y-80228863D01*
X63274363Y-80428741D01*
X63117320Y-80663773D01*
X63009147Y-80924926D01*
X62954000Y-81202165D01*
X62954000Y-81484835D01*
X63009147Y-81762074D01*
X63117320Y-82023227D01*
X63274363Y-82258259D01*
X63474241Y-82458137D01*
X63706759Y-82613500D01*
X63474241Y-82768863D01*
X63274363Y-82968741D01*
X63117320Y-83203773D01*
X63009147Y-83464926D01*
X62954000Y-83742165D01*
X62954000Y-84024835D01*
X63009147Y-84302074D01*
X63117320Y-84563227D01*
X63274363Y-84798259D01*
X63474241Y-84998137D01*
X63709273Y-85155180D01*
X63970426Y-85263353D01*
X64247665Y-85318500D01*
X64530335Y-85318500D01*
X64807574Y-85263353D01*
X65068727Y-85155180D01*
X65303759Y-84998137D01*
X65503637Y-84798259D01*
X65660680Y-84563227D01*
X65768853Y-84302074D01*
X65824000Y-84024835D01*
X65824000Y-83742165D01*
X65787688Y-83559614D01*
X67079542Y-82267760D01*
X90667461Y-82267760D01*
X91107222Y-82707522D01*
X90873241Y-82863863D01*
X90673363Y-83063741D01*
X90518000Y-83296259D01*
X90362637Y-83063741D01*
X90162759Y-82863863D01*
X89927727Y-82706820D01*
X89666574Y-82598647D01*
X89389335Y-82543500D01*
X89106665Y-82543500D01*
X88829426Y-82598647D01*
X88568273Y-82706820D01*
X88333241Y-82863863D01*
X88133363Y-83063741D01*
X87978000Y-83296259D01*
X87822637Y-83063741D01*
X87622759Y-82863863D01*
X87387727Y-82706820D01*
X87126574Y-82598647D01*
X86849335Y-82543500D01*
X86566665Y-82543500D01*
X86289426Y-82598647D01*
X86028273Y-82706820D01*
X85793241Y-82863863D01*
X85593363Y-83063741D01*
X85438000Y-83296259D01*
X85282637Y-83063741D01*
X85082759Y-82863863D01*
X84847727Y-82706820D01*
X84586574Y-82598647D01*
X84309335Y-82543500D01*
X84026665Y-82543500D01*
X83749426Y-82598647D01*
X83488273Y-82706820D01*
X83253241Y-82863863D01*
X83053363Y-83063741D01*
X82898000Y-83296259D01*
X82742637Y-83063741D01*
X82542759Y-82863863D01*
X82307727Y-82706820D01*
X82046574Y-82598647D01*
X81769335Y-82543500D01*
X81486665Y-82543500D01*
X81209426Y-82598647D01*
X80948273Y-82706820D01*
X80713241Y-82863863D01*
X80513363Y-83063741D01*
X80356320Y-83298773D01*
X80351933Y-83309365D01*
X80240385Y-83123369D01*
X80051414Y-82914981D01*
X79825420Y-82747463D01*
X79571087Y-82627254D01*
X79437039Y-82586596D01*
X79215000Y-82708585D01*
X79215000Y-83851500D01*
X79235000Y-83851500D01*
X79235000Y-84105500D01*
X79215000Y-84105500D01*
X79215000Y-84125500D01*
X78961000Y-84125500D01*
X78961000Y-84105500D01*
X78941000Y-84105500D01*
X78941000Y-83851500D01*
X78961000Y-83851500D01*
X78961000Y-82708585D01*
X78738961Y-82586596D01*
X78604913Y-82627254D01*
X78350580Y-82747463D01*
X78124586Y-82914981D01*
X77935615Y-83123369D01*
X77824067Y-83309365D01*
X77819680Y-83298773D01*
X77662637Y-83063741D01*
X77462759Y-82863863D01*
X77227727Y-82706820D01*
X76966574Y-82598647D01*
X76689335Y-82543500D01*
X76406665Y-82543500D01*
X76129426Y-82598647D01*
X75868273Y-82706820D01*
X75633241Y-82863863D01*
X75433363Y-83063741D01*
X75278000Y-83296259D01*
X75122637Y-83063741D01*
X74922759Y-82863863D01*
X74687727Y-82706820D01*
X74426574Y-82598647D01*
X74149335Y-82543500D01*
X73866665Y-82543500D01*
X73589426Y-82598647D01*
X73328273Y-82706820D01*
X73093241Y-82863863D01*
X72894643Y-83062461D01*
X72893812Y-83054018D01*
X72857502Y-82934320D01*
X72798537Y-82824006D01*
X72719185Y-82727315D01*
X72622494Y-82647963D01*
X72512180Y-82588998D01*
X72392482Y-82552688D01*
X72268000Y-82540428D01*
X70668000Y-82540428D01*
X70543518Y-82552688D01*
X70423820Y-82588998D01*
X70313506Y-82647963D01*
X70216815Y-82727315D01*
X70137463Y-82824006D01*
X70078498Y-82934320D01*
X70042188Y-83054018D01*
X70029928Y-83178500D01*
X70029928Y-84778500D01*
X70042188Y-84902982D01*
X70078498Y-85022680D01*
X70137463Y-85132994D01*
X70216815Y-85229685D01*
X70313506Y-85309037D01*
X70423820Y-85368002D01*
X70543518Y-85404312D01*
X70668000Y-85416572D01*
X72268000Y-85416572D01*
X72392482Y-85404312D01*
X72512180Y-85368002D01*
X72622494Y-85309037D01*
X72719185Y-85229685D01*
X72798537Y-85132994D01*
X72857502Y-85022680D01*
X72893812Y-84902982D01*
X72894643Y-84894539D01*
X73093241Y-85093137D01*
X73328273Y-85250180D01*
X73589426Y-85358353D01*
X73653811Y-85371160D01*
X73559014Y-85380497D01*
X73415753Y-85423954D01*
X73283724Y-85494526D01*
X73167999Y-85589499D01*
X73144201Y-85618497D01*
X70097059Y-88665640D01*
X69845756Y-88561547D01*
X69433279Y-88479500D01*
X69012721Y-88479500D01*
X68600244Y-88561547D01*
X68211698Y-88722488D01*
X67862017Y-88956137D01*
X67564637Y-89253517D01*
X67330988Y-89603198D01*
X67170047Y-89991744D01*
X67088000Y-90404221D01*
X67088000Y-90824779D01*
X67170047Y-91237256D01*
X67330988Y-91625802D01*
X67564637Y-91975483D01*
X67862017Y-92272863D01*
X68211698Y-92506512D01*
X68600244Y-92667453D01*
X69012721Y-92749500D01*
X69433279Y-92749500D01*
X69845756Y-92667453D01*
X70234302Y-92506512D01*
X70583983Y-92272863D01*
X70881363Y-91975483D01*
X71115012Y-91625802D01*
X71275953Y-91237256D01*
X71358000Y-90824779D01*
X71358000Y-90404221D01*
X71275953Y-89991744D01*
X71171860Y-89740441D01*
X74022802Y-86889500D01*
X74260199Y-86889500D01*
X73792003Y-87357696D01*
X73762999Y-87381499D01*
X73707871Y-87448674D01*
X73668026Y-87497224D01*
X73597455Y-87629253D01*
X73597454Y-87629254D01*
X73553997Y-87772515D01*
X73543000Y-87884168D01*
X73543000Y-87884178D01*
X73539324Y-87921500D01*
X73543000Y-87958823D01*
X73543000Y-88476428D01*
X72803000Y-88476428D01*
X72678518Y-88488688D01*
X72558820Y-88524998D01*
X72448506Y-88583963D01*
X72351815Y-88663315D01*
X72272463Y-88760006D01*
X72213498Y-88870320D01*
X72177188Y-88990018D01*
X72164928Y-89114500D01*
X72164928Y-92114500D01*
X72177188Y-92238982D01*
X72213498Y-92358680D01*
X72272463Y-92468994D01*
X72351815Y-92565685D01*
X72448506Y-92645037D01*
X72558820Y-92704002D01*
X72678518Y-92740312D01*
X72803000Y-92752572D01*
X75803000Y-92752572D01*
X75927482Y-92740312D01*
X76047180Y-92704002D01*
X76157494Y-92645037D01*
X76254185Y-92565685D01*
X76333537Y-92468994D01*
X76392502Y-92358680D01*
X76428812Y-92238982D01*
X76441072Y-92114500D01*
X76441072Y-89114500D01*
X76428812Y-88990018D01*
X76392502Y-88870320D01*
X76333537Y-88760006D01*
X76254185Y-88663315D01*
X76157494Y-88583963D01*
X76047180Y-88524998D01*
X75927482Y-88488688D01*
X75803000Y-88476428D01*
X75063000Y-88476428D01*
X75063000Y-88236301D01*
X75909802Y-87389500D01*
X81479678Y-87389500D01*
X81517000Y-87393176D01*
X81530891Y-87391808D01*
X80257059Y-88665640D01*
X80005756Y-88561547D01*
X79593279Y-88479500D01*
X79172721Y-88479500D01*
X78760244Y-88561547D01*
X78371698Y-88722488D01*
X78022017Y-88956137D01*
X77724637Y-89253517D01*
X77490988Y-89603198D01*
X77330047Y-89991744D01*
X77248000Y-90404221D01*
X77248000Y-90824779D01*
X77330047Y-91237256D01*
X77490988Y-91625802D01*
X77724637Y-91975483D01*
X78022017Y-92272863D01*
X78371698Y-92506512D01*
X78760244Y-92667453D01*
X79172721Y-92749500D01*
X79593279Y-92749500D01*
X80005756Y-92667453D01*
X80394302Y-92506512D01*
X80743983Y-92272863D01*
X81041363Y-91975483D01*
X81275012Y-91625802D01*
X81435953Y-91237256D01*
X81518000Y-90824779D01*
X81518000Y-90404221D01*
X81435953Y-89991744D01*
X81331860Y-89740441D01*
X85095302Y-85977000D01*
X85432178Y-85977000D01*
X85469500Y-85980676D01*
X85506822Y-85977000D01*
X85506833Y-85977000D01*
X85618486Y-85966003D01*
X85705629Y-85939569D01*
X83952003Y-87693196D01*
X83922999Y-87716999D01*
X83877439Y-87772515D01*
X83828026Y-87832724D01*
X83796852Y-87891046D01*
X83757454Y-87964754D01*
X83713997Y-88108015D01*
X83703000Y-88219668D01*
X83703000Y-88219678D01*
X83699324Y-88257000D01*
X83703000Y-88294323D01*
X83703000Y-88476428D01*
X82963000Y-88476428D01*
X82838518Y-88488688D01*
X82718820Y-88524998D01*
X82608506Y-88583963D01*
X82511815Y-88663315D01*
X82432463Y-88760006D01*
X82373498Y-88870320D01*
X82337188Y-88990018D01*
X82324928Y-89114500D01*
X82324928Y-92114500D01*
X82337188Y-92238982D01*
X82373498Y-92358680D01*
X82432463Y-92468994D01*
X82511815Y-92565685D01*
X82608506Y-92645037D01*
X82718820Y-92704002D01*
X82838518Y-92740312D01*
X82963000Y-92752572D01*
X85963000Y-92752572D01*
X86087482Y-92740312D01*
X86207180Y-92704002D01*
X86317494Y-92645037D01*
X86414185Y-92565685D01*
X86493537Y-92468994D01*
X86552502Y-92358680D01*
X86588812Y-92238982D01*
X86601072Y-92114500D01*
X86601072Y-92106153D01*
X88230952Y-92106153D01*
X88386962Y-92421714D01*
X88761745Y-92612520D01*
X89166551Y-92726544D01*
X89585824Y-92759402D01*
X90003451Y-92709834D01*
X90403383Y-92579743D01*
X90699038Y-92421714D01*
X90850921Y-92114500D01*
X92484928Y-92114500D01*
X92497188Y-92238982D01*
X92533498Y-92358680D01*
X92592463Y-92468994D01*
X92671815Y-92565685D01*
X92768506Y-92645037D01*
X92878820Y-92704002D01*
X92998518Y-92740312D01*
X93123000Y-92752572D01*
X94337250Y-92749500D01*
X94496000Y-92590750D01*
X94496000Y-90741500D01*
X94750000Y-90741500D01*
X94750000Y-92590750D01*
X94908750Y-92749500D01*
X96123000Y-92752572D01*
X96247482Y-92740312D01*
X96367180Y-92704002D01*
X96477494Y-92645037D01*
X96574185Y-92565685D01*
X96653537Y-92468994D01*
X96712502Y-92358680D01*
X96748812Y-92238982D01*
X96761072Y-92114500D01*
X96758000Y-90900250D01*
X96599250Y-90741500D01*
X94750000Y-90741500D01*
X94496000Y-90741500D01*
X92646750Y-90741500D01*
X92488000Y-90900250D01*
X92484928Y-92114500D01*
X90850921Y-92114500D01*
X90855048Y-92106153D01*
X89543000Y-90794105D01*
X88230952Y-92106153D01*
X86601072Y-92106153D01*
X86601072Y-90657324D01*
X87398098Y-90657324D01*
X87447666Y-91074951D01*
X87577757Y-91474883D01*
X87735786Y-91770538D01*
X88051347Y-91926548D01*
X89363395Y-90614500D01*
X89722605Y-90614500D01*
X91034653Y-91926548D01*
X91350214Y-91770538D01*
X91541020Y-91395755D01*
X91655044Y-90990949D01*
X91687902Y-90571676D01*
X91638334Y-90154049D01*
X91508243Y-89754117D01*
X91350214Y-89458462D01*
X91034653Y-89302452D01*
X89722605Y-90614500D01*
X89363395Y-90614500D01*
X88051347Y-89302452D01*
X87735786Y-89458462D01*
X87544980Y-89833245D01*
X87430956Y-90238051D01*
X87398098Y-90657324D01*
X86601072Y-90657324D01*
X86601072Y-89122847D01*
X88230952Y-89122847D01*
X89543000Y-90434895D01*
X90855048Y-89122847D01*
X90850922Y-89114500D01*
X92484928Y-89114500D01*
X92488000Y-90328750D01*
X92646750Y-90487500D01*
X94496000Y-90487500D01*
X94496000Y-88638250D01*
X94750000Y-88638250D01*
X94750000Y-90487500D01*
X96599250Y-90487500D01*
X96758000Y-90328750D01*
X96761072Y-89114500D01*
X96748812Y-88990018D01*
X96712502Y-88870320D01*
X96653537Y-88760006D01*
X96574185Y-88663315D01*
X96477494Y-88583963D01*
X96367180Y-88524998D01*
X96247482Y-88488688D01*
X96123000Y-88476428D01*
X94908750Y-88479500D01*
X94750000Y-88638250D01*
X94496000Y-88638250D01*
X94337250Y-88479500D01*
X93123000Y-88476428D01*
X92998518Y-88488688D01*
X92878820Y-88524998D01*
X92768506Y-88583963D01*
X92671815Y-88663315D01*
X92592463Y-88760006D01*
X92533498Y-88870320D01*
X92497188Y-88990018D01*
X92484928Y-89114500D01*
X90850922Y-89114500D01*
X90699038Y-88807286D01*
X90324255Y-88616480D01*
X89919449Y-88502456D01*
X89500176Y-88469598D01*
X89082549Y-88519166D01*
X88682617Y-88649257D01*
X88386962Y-88807286D01*
X88230952Y-89122847D01*
X86601072Y-89122847D01*
X86601072Y-89114500D01*
X86588812Y-88990018D01*
X86552502Y-88870320D01*
X86493537Y-88760006D01*
X86414185Y-88663315D01*
X86317494Y-88583963D01*
X86207180Y-88524998D01*
X86087482Y-88488688D01*
X85963000Y-88476428D01*
X85318373Y-88476428D01*
X86992302Y-86802500D01*
X87146678Y-86802500D01*
X87184000Y-86806176D01*
X87221322Y-86802500D01*
X87221333Y-86802500D01*
X87332986Y-86791503D01*
X87476247Y-86748046D01*
X87608276Y-86677474D01*
X87724001Y-86582501D01*
X87747804Y-86553497D01*
X88924114Y-85377188D01*
X89106665Y-85413500D01*
X89389335Y-85413500D01*
X89666574Y-85358353D01*
X89927727Y-85250180D01*
X90162759Y-85093137D01*
X90362637Y-84893259D01*
X90518000Y-84660741D01*
X90673363Y-84893259D01*
X90873241Y-85093137D01*
X91028000Y-85196544D01*
X91028000Y-85527677D01*
X91024324Y-85565000D01*
X91028000Y-85602322D01*
X91028000Y-85602332D01*
X91038997Y-85713985D01*
X91071308Y-85820501D01*
X91082454Y-85857246D01*
X91153026Y-85989276D01*
X91157335Y-85994526D01*
X91247999Y-86105001D01*
X91277003Y-86128804D01*
X92844700Y-87696502D01*
X92868499Y-87725501D01*
X92897497Y-87749299D01*
X92984223Y-87820474D01*
X93103383Y-87884167D01*
X93116253Y-87891046D01*
X93259514Y-87934503D01*
X93371167Y-87945500D01*
X93371176Y-87945500D01*
X93408499Y-87949176D01*
X93445822Y-87945500D01*
X95959199Y-87945500D01*
X97754140Y-89740441D01*
X97650047Y-89991744D01*
X97568000Y-90404221D01*
X97568000Y-90824779D01*
X97650047Y-91237256D01*
X97810988Y-91625802D01*
X98044637Y-91975483D01*
X98342017Y-92272863D01*
X98691698Y-92506512D01*
X99080244Y-92667453D01*
X99492721Y-92749500D01*
X99913279Y-92749500D01*
X100325756Y-92667453D01*
X100714302Y-92506512D01*
X101063983Y-92272863D01*
X101361363Y-91975483D01*
X101595012Y-91625802D01*
X101755953Y-91237256D01*
X101838000Y-90824779D01*
X101838000Y-90404221D01*
X101755953Y-89991744D01*
X101595012Y-89603198D01*
X101361363Y-89253517D01*
X101222346Y-89114500D01*
X102644928Y-89114500D01*
X102644928Y-92114500D01*
X102657188Y-92238982D01*
X102693498Y-92358680D01*
X102752463Y-92468994D01*
X102831815Y-92565685D01*
X102928506Y-92645037D01*
X103038820Y-92704002D01*
X103158518Y-92740312D01*
X103283000Y-92752572D01*
X106283000Y-92752572D01*
X106407482Y-92740312D01*
X106527180Y-92704002D01*
X106637494Y-92645037D01*
X106734185Y-92565685D01*
X106813537Y-92468994D01*
X106872502Y-92358680D01*
X106908812Y-92238982D01*
X106921072Y-92114500D01*
X106921072Y-89114500D01*
X106908812Y-88990018D01*
X106872502Y-88870320D01*
X106813537Y-88760006D01*
X106734185Y-88663315D01*
X106637494Y-88583963D01*
X106527180Y-88524998D01*
X106407482Y-88488688D01*
X106283000Y-88476428D01*
X103283000Y-88476428D01*
X103158518Y-88488688D01*
X103038820Y-88524998D01*
X102928506Y-88583963D01*
X102831815Y-88663315D01*
X102752463Y-88760006D01*
X102693498Y-88870320D01*
X102657188Y-88990018D01*
X102644928Y-89114500D01*
X101222346Y-89114500D01*
X101063983Y-88956137D01*
X100714302Y-88722488D01*
X100325756Y-88561547D01*
X99913279Y-88479500D01*
X99492721Y-88479500D01*
X99080244Y-88561547D01*
X98828941Y-88665640D01*
X96837804Y-86674503D01*
X96814001Y-86645499D01*
X96698276Y-86550526D01*
X96566247Y-86479954D01*
X96422986Y-86436497D01*
X96311333Y-86425500D01*
X96311322Y-86425500D01*
X96274000Y-86421824D01*
X96236678Y-86425500D01*
X93723302Y-86425500D01*
X92548000Y-85250199D01*
X92548000Y-85196543D01*
X92702759Y-85093137D01*
X92702796Y-85093100D01*
X93401199Y-85791502D01*
X93424997Y-85820501D01*
X93540722Y-85915474D01*
X93672751Y-85986046D01*
X93816012Y-86029503D01*
X93927665Y-86040500D01*
X93927674Y-86040500D01*
X93964997Y-86044176D01*
X94002320Y-86040500D01*
X98068678Y-86040500D01*
X98106000Y-86044176D01*
X98143322Y-86040500D01*
X98143333Y-86040500D01*
X98254986Y-86029503D01*
X98398247Y-85986046D01*
X98530276Y-85915474D01*
X98646001Y-85820501D01*
X98669804Y-85791497D01*
X99084114Y-85377188D01*
X99266665Y-85413500D01*
X99549335Y-85413500D01*
X99826574Y-85358353D01*
X100087727Y-85250180D01*
X100322759Y-85093137D01*
X100522637Y-84893259D01*
X100678000Y-84660741D01*
X100833363Y-84893259D01*
X101033241Y-85093137D01*
X101268273Y-85250180D01*
X101529426Y-85358353D01*
X101806665Y-85413500D01*
X102089335Y-85413500D01*
X102366574Y-85358353D01*
X102627727Y-85250180D01*
X102862759Y-85093137D01*
X103062637Y-84893259D01*
X103218000Y-84660741D01*
X103373363Y-84893259D01*
X103573241Y-85093137D01*
X103808273Y-85250180D01*
X104069426Y-85358353D01*
X104346665Y-85413500D01*
X104629335Y-85413500D01*
X104906574Y-85358353D01*
X105167727Y-85250180D01*
X105402759Y-85093137D01*
X105602637Y-84893259D01*
X105758000Y-84660741D01*
X105913363Y-84893259D01*
X106113241Y-85093137D01*
X106348273Y-85250180D01*
X106609426Y-85358353D01*
X106886665Y-85413500D01*
X107169335Y-85413500D01*
X107446574Y-85358353D01*
X107707727Y-85250180D01*
X107942759Y-85093137D01*
X108142637Y-84893259D01*
X108299680Y-84658227D01*
X108407853Y-84397074D01*
X108463000Y-84119835D01*
X108463000Y-83837165D01*
X108407853Y-83559926D01*
X108299680Y-83298773D01*
X108142637Y-83063741D01*
X107942759Y-82863863D01*
X107707727Y-82706820D01*
X107446574Y-82598647D01*
X107169335Y-82543500D01*
X106886665Y-82543500D01*
X106609426Y-82598647D01*
X106348273Y-82706820D01*
X106113241Y-82863863D01*
X105913363Y-83063741D01*
X105758000Y-83296259D01*
X105602637Y-83063741D01*
X105402759Y-82863863D01*
X105167727Y-82706820D01*
X104906574Y-82598647D01*
X104629335Y-82543500D01*
X104346665Y-82543500D01*
X104069426Y-82598647D01*
X103808273Y-82706820D01*
X103573241Y-82863863D01*
X103373363Y-83063741D01*
X103218000Y-83296259D01*
X103062637Y-83063741D01*
X102862759Y-82863863D01*
X102627727Y-82706820D01*
X102366574Y-82598647D01*
X102089335Y-82543500D01*
X101806665Y-82543500D01*
X101529426Y-82598647D01*
X101268273Y-82706820D01*
X101033241Y-82863863D01*
X100833363Y-83063741D01*
X100678000Y-83296259D01*
X100522637Y-83063741D01*
X100322759Y-82863863D01*
X100087727Y-82706820D01*
X99826574Y-82598647D01*
X99549335Y-82543500D01*
X99266665Y-82543500D01*
X98989426Y-82598647D01*
X98728273Y-82706820D01*
X98493241Y-82863863D01*
X98293363Y-83063741D01*
X98138000Y-83296259D01*
X97982637Y-83063741D01*
X97782759Y-82863863D01*
X97547727Y-82706820D01*
X97286574Y-82598647D01*
X97009335Y-82543500D01*
X96726665Y-82543500D01*
X96544114Y-82579812D01*
X94061044Y-80096743D01*
X94037241Y-80067739D01*
X93921516Y-79972766D01*
X93789487Y-79902194D01*
X93646226Y-79858737D01*
X93534573Y-79847740D01*
X93534562Y-79847740D01*
X93497240Y-79844064D01*
X93459918Y-79847740D01*
X69112953Y-79847740D01*
X67186510Y-77921299D01*
X67186510Y-75858316D01*
X67807000Y-75858316D01*
X67807000Y-76160684D01*
X67865989Y-76457243D01*
X67981701Y-76736595D01*
X68149688Y-76988005D01*
X68363495Y-77201812D01*
X68614905Y-77369799D01*
X68894257Y-77485511D01*
X69190816Y-77544500D01*
X69493184Y-77544500D01*
X69789743Y-77485511D01*
X70069095Y-77369799D01*
X70320505Y-77201812D01*
X70534312Y-76988005D01*
X70702299Y-76736595D01*
X70818011Y-76457243D01*
X70877000Y-76160684D01*
X70877000Y-75858316D01*
X70818011Y-75561757D01*
X70702299Y-75282405D01*
X70586768Y-75109500D01*
X75423928Y-75109500D01*
X75423928Y-76909500D01*
X75436188Y-77033982D01*
X75472498Y-77153680D01*
X75531463Y-77263994D01*
X75610815Y-77360685D01*
X75707506Y-77440037D01*
X75817820Y-77499002D01*
X75937518Y-77535312D01*
X76062000Y-77547572D01*
X77862000Y-77547572D01*
X77986482Y-77535312D01*
X78106180Y-77499002D01*
X78216494Y-77440037D01*
X78313185Y-77360685D01*
X78392537Y-77263994D01*
X78451502Y-77153680D01*
X78487812Y-77033982D01*
X78500072Y-76909500D01*
X78500072Y-75109500D01*
X78487812Y-74985018D01*
X78451502Y-74865320D01*
X78392537Y-74755006D01*
X78313185Y-74658315D01*
X78216494Y-74578963D01*
X78106180Y-74519998D01*
X77986482Y-74483688D01*
X77862000Y-74471428D01*
X76062000Y-74471428D01*
X75937518Y-74483688D01*
X75817820Y-74519998D01*
X75707506Y-74578963D01*
X75610815Y-74658315D01*
X75531463Y-74755006D01*
X75472498Y-74865320D01*
X75436188Y-74985018D01*
X75423928Y-75109500D01*
X70586768Y-75109500D01*
X70534312Y-75030995D01*
X70320505Y-74817188D01*
X70069095Y-74649201D01*
X69789743Y-74533489D01*
X69493184Y-74474500D01*
X69190816Y-74474500D01*
X68894257Y-74533489D01*
X68614905Y-74649201D01*
X68363495Y-74817188D01*
X68149688Y-75030995D01*
X67981701Y-75282405D01*
X67865989Y-75561757D01*
X67807000Y-75858316D01*
X67186510Y-75858316D01*
X67186510Y-72823500D01*
X87044428Y-72823500D01*
X87044428Y-74623500D01*
X87056688Y-74747982D01*
X87092998Y-74867680D01*
X87151963Y-74977994D01*
X87231315Y-75074685D01*
X87328006Y-75154037D01*
X87438320Y-75213002D01*
X87558018Y-75249312D01*
X87682500Y-75261572D01*
X89482500Y-75261572D01*
X89606982Y-75249312D01*
X89726680Y-75213002D01*
X89836994Y-75154037D01*
X89933685Y-75074685D01*
X90013037Y-74977994D01*
X90072002Y-74867680D01*
X90108312Y-74747982D01*
X90120572Y-74623500D01*
X90120572Y-73572316D01*
X94667500Y-73572316D01*
X94667500Y-73874684D01*
X94726489Y-74171243D01*
X94842201Y-74450595D01*
X95010188Y-74702005D01*
X95223995Y-74915812D01*
X95475405Y-75083799D01*
X95754757Y-75199511D01*
X96051316Y-75258500D01*
X96353684Y-75258500D01*
X96650243Y-75199511D01*
X96929595Y-75083799D01*
X97181005Y-74915812D01*
X97394812Y-74702005D01*
X97562799Y-74450595D01*
X97678511Y-74171243D01*
X97737500Y-73874684D01*
X97737500Y-73572316D01*
X97678511Y-73275757D01*
X97562799Y-72996405D01*
X97394812Y-72744995D01*
X97181005Y-72531188D01*
X96929595Y-72363201D01*
X96650243Y-72247489D01*
X96353684Y-72188500D01*
X96051316Y-72188500D01*
X95754757Y-72247489D01*
X95475405Y-72363201D01*
X95223995Y-72531188D01*
X95010188Y-72744995D01*
X94842201Y-72996405D01*
X94726489Y-73275757D01*
X94667500Y-73572316D01*
X90120572Y-73572316D01*
X90120572Y-72823500D01*
X90108312Y-72699018D01*
X90072002Y-72579320D01*
X90013037Y-72469006D01*
X89933685Y-72372315D01*
X89836994Y-72292963D01*
X89726680Y-72233998D01*
X89606982Y-72197688D01*
X89482500Y-72185428D01*
X87682500Y-72185428D01*
X87558018Y-72197688D01*
X87438320Y-72233998D01*
X87328006Y-72292963D01*
X87231315Y-72372315D01*
X87151963Y-72469006D01*
X87092998Y-72579320D01*
X87056688Y-72699018D01*
X87044428Y-72823500D01*
X67186510Y-72823500D01*
X67186510Y-68597165D01*
X70033000Y-68597165D01*
X70033000Y-68879835D01*
X70088147Y-69157074D01*
X70196320Y-69418227D01*
X70353363Y-69653259D01*
X70553241Y-69853137D01*
X70788273Y-70010180D01*
X71049426Y-70118353D01*
X71326665Y-70173500D01*
X71609335Y-70173500D01*
X71886574Y-70118353D01*
X72147727Y-70010180D01*
X72382759Y-69853137D01*
X72582637Y-69653259D01*
X72739680Y-69418227D01*
X72744067Y-69407635D01*
X72855615Y-69593631D01*
X73044586Y-69802019D01*
X73270580Y-69969537D01*
X73524913Y-70089746D01*
X73658961Y-70130404D01*
X73881000Y-70008415D01*
X73881000Y-68865500D01*
X73861000Y-68865500D01*
X73861000Y-68611500D01*
X73881000Y-68611500D01*
X73881000Y-67468585D01*
X73658961Y-67346596D01*
X73524913Y-67387254D01*
X73270580Y-67507463D01*
X73044586Y-67674981D01*
X72855615Y-67883369D01*
X72744067Y-68069365D01*
X72739680Y-68058773D01*
X72582637Y-67823741D01*
X72382759Y-67623863D01*
X72147727Y-67466820D01*
X71886574Y-67358647D01*
X71609335Y-67303500D01*
X71326665Y-67303500D01*
X71049426Y-67358647D01*
X70788273Y-67466820D01*
X70553241Y-67623863D01*
X70353363Y-67823741D01*
X70196320Y-68058773D01*
X70088147Y-68319926D01*
X70033000Y-68597165D01*
X67186510Y-68597165D01*
X67186510Y-67416343D01*
X67190187Y-67379010D01*
X67175513Y-67230024D01*
X67132056Y-67086763D01*
X67061484Y-66954734D01*
X66990309Y-66868007D01*
X66966511Y-66839009D01*
X66937513Y-66815211D01*
X65741718Y-65619417D01*
X65660680Y-65423773D01*
X65503637Y-65188741D01*
X65303759Y-64988863D01*
X65068727Y-64831820D01*
X65047212Y-64822908D01*
X79311500Y-64822908D01*
X79311500Y-65098092D01*
X79365186Y-65367990D01*
X79470495Y-65622227D01*
X79623380Y-65851035D01*
X79817965Y-66045620D01*
X80046773Y-66198505D01*
X80301010Y-66303814D01*
X80570908Y-66357500D01*
X80846092Y-66357500D01*
X81115990Y-66303814D01*
X81370227Y-66198505D01*
X81599035Y-66045620D01*
X81793620Y-65851035D01*
X81946505Y-65622227D01*
X82051814Y-65367990D01*
X82105500Y-65098092D01*
X82105500Y-64822908D01*
X95059500Y-64822908D01*
X95059500Y-65098092D01*
X95113186Y-65367990D01*
X95218495Y-65622227D01*
X95371380Y-65851035D01*
X95565965Y-66045620D01*
X95794773Y-66198505D01*
X96049010Y-66303814D01*
X96318908Y-66357500D01*
X96594092Y-66357500D01*
X96863990Y-66303814D01*
X97118227Y-66198505D01*
X97347035Y-66045620D01*
X97541620Y-65851035D01*
X97694505Y-65622227D01*
X97799814Y-65367990D01*
X97853500Y-65098092D01*
X97853500Y-64822908D01*
X97799814Y-64553010D01*
X97694505Y-64298773D01*
X97541620Y-64069965D01*
X97347035Y-63875380D01*
X97118227Y-63722495D01*
X96863990Y-63617186D01*
X96594092Y-63563500D01*
X96318908Y-63563500D01*
X96049010Y-63617186D01*
X95794773Y-63722495D01*
X95565965Y-63875380D01*
X95371380Y-64069965D01*
X95218495Y-64298773D01*
X95113186Y-64553010D01*
X95059500Y-64822908D01*
X82105500Y-64822908D01*
X82051814Y-64553010D01*
X81946505Y-64298773D01*
X81793620Y-64069965D01*
X81599035Y-63875380D01*
X81370227Y-63722495D01*
X81115990Y-63617186D01*
X80846092Y-63563500D01*
X80570908Y-63563500D01*
X80301010Y-63617186D01*
X80046773Y-63722495D01*
X79817965Y-63875380D01*
X79623380Y-64069965D01*
X79470495Y-64298773D01*
X79365186Y-64553010D01*
X79311500Y-64822908D01*
X65047212Y-64822908D01*
X64807574Y-64723647D01*
X64530335Y-64668500D01*
X64247665Y-64668500D01*
X63970426Y-64723647D01*
X63709273Y-64831820D01*
X63474241Y-64988863D01*
X63274363Y-65188741D01*
X63117320Y-65423773D01*
X63009147Y-65684926D01*
X62954000Y-65962165D01*
X58780028Y-65962165D01*
X58780028Y-65610278D01*
X60375797Y-64014510D01*
X71351610Y-64014510D01*
X71399990Y-64019275D01*
X71448370Y-64014510D01*
X71593084Y-64000257D01*
X71778757Y-63943934D01*
X71949874Y-63852470D01*
X72099860Y-63729380D01*
X72130706Y-63691794D01*
X74661942Y-61160558D01*
X74688244Y-61171453D01*
X75100721Y-61253500D01*
X75521279Y-61253500D01*
X75933756Y-61171453D01*
X76322302Y-61010512D01*
X76671983Y-60776863D01*
X76969363Y-60479483D01*
X77203012Y-60129802D01*
X77363953Y-59741256D01*
X77446000Y-59328779D01*
X77446000Y-58908221D01*
X77363953Y-58495744D01*
X77203012Y-58107198D01*
X76969363Y-57757517D01*
X76671983Y-57460137D01*
X76322302Y-57226488D01*
X75933756Y-57065547D01*
X75521279Y-56983500D01*
X75100721Y-56983500D01*
X74688244Y-57065547D01*
X74299698Y-57226488D01*
X73950017Y-57460137D01*
X73652637Y-57757517D01*
X73418988Y-58107198D01*
X73258047Y-58495744D01*
X73176000Y-58908221D01*
X73176000Y-59328779D01*
X73258047Y-59741256D01*
X73268942Y-59767558D01*
X72363727Y-60672773D01*
X72369072Y-60618500D01*
X72369072Y-57618500D01*
X72356812Y-57494018D01*
X72320502Y-57374320D01*
X72261537Y-57264006D01*
X72182185Y-57167315D01*
X72085494Y-57087963D01*
X71975180Y-57028998D01*
X71855482Y-56992688D01*
X71731000Y-56980428D01*
X68731000Y-56980428D01*
X68606518Y-56992688D01*
X68486820Y-57028998D01*
X68376506Y-57087963D01*
X68279815Y-57167315D01*
X68200463Y-57264006D01*
X68141498Y-57374320D01*
X68105188Y-57494018D01*
X68092928Y-57618500D01*
X68092928Y-59863572D01*
X66812000Y-61144500D01*
X65838826Y-61144500D01*
X66162302Y-61010512D01*
X66511983Y-60776863D01*
X66809363Y-60479483D01*
X67043012Y-60129802D01*
X67203953Y-59741256D01*
X67286000Y-59328779D01*
X67286000Y-58908221D01*
X67203953Y-58495744D01*
X67043012Y-58107198D01*
X66809363Y-57757517D01*
X66511983Y-57460137D01*
X66162302Y-57226488D01*
X65773756Y-57065547D01*
X65361279Y-56983500D01*
X64940721Y-56983500D01*
X64528244Y-57065547D01*
X64139698Y-57226488D01*
X63790017Y-57460137D01*
X63492637Y-57757517D01*
X63258988Y-58107198D01*
X63098047Y-58495744D01*
X63050196Y-58736306D01*
X62209072Y-59577430D01*
X62209072Y-57618500D01*
X62196812Y-57494018D01*
X62160502Y-57374320D01*
X62101537Y-57264006D01*
X62022185Y-57167315D01*
X61925494Y-57087963D01*
X61815180Y-57028998D01*
X61695482Y-56992688D01*
X61571000Y-56980428D01*
X58571000Y-56980428D01*
X58446518Y-56992688D01*
X58326820Y-57028998D01*
X58216506Y-57087963D01*
X58119815Y-57167315D01*
X58040463Y-57264006D01*
X57981498Y-57374320D01*
X57945188Y-57494018D01*
X57932928Y-57618500D01*
X57932928Y-58133500D01*
X57654379Y-58133500D01*
X57605999Y-58128735D01*
X57412905Y-58147753D01*
X57369691Y-58160862D01*
X57227233Y-58204076D01*
X57056116Y-58295540D01*
X56906130Y-58418630D01*
X56875284Y-58456216D01*
X54432716Y-60898784D01*
X54395130Y-60929630D01*
X54272040Y-61079616D01*
X54199635Y-61215077D01*
X54180576Y-61250734D01*
X54124253Y-61436407D01*
X54105235Y-61629500D01*
X54110000Y-61677880D01*
X54110001Y-68721498D01*
X52683198Y-70148302D01*
X52603759Y-70068863D01*
X52371241Y-69913500D01*
X52603759Y-69758137D01*
X52803637Y-69558259D01*
X52960680Y-69323227D01*
X53068853Y-69062074D01*
X53124000Y-68784835D01*
X53124000Y-68502165D01*
X53068853Y-68224926D01*
X52960680Y-67963773D01*
X52803637Y-67728741D01*
X52605039Y-67530143D01*
X52613482Y-67529312D01*
X52733180Y-67493002D01*
X52843494Y-67434037D01*
X52940185Y-67354685D01*
X53019537Y-67257994D01*
X53078502Y-67147680D01*
X53114812Y-67027982D01*
X53127072Y-66903500D01*
X53124000Y-66389250D01*
X52965250Y-66230500D01*
X51816000Y-66230500D01*
X51816000Y-66250500D01*
X51562000Y-66250500D01*
X51562000Y-66230500D01*
X50412750Y-66230500D01*
X50254000Y-66389250D01*
X50250928Y-66903500D01*
X49755000Y-66903500D01*
X49755000Y-65303500D01*
X50250928Y-65303500D01*
X50254000Y-65817750D01*
X50412750Y-65976500D01*
X51562000Y-65976500D01*
X51562000Y-64827250D01*
X51816000Y-64827250D01*
X51816000Y-65976500D01*
X52965250Y-65976500D01*
X53124000Y-65817750D01*
X53127072Y-65303500D01*
X53114812Y-65179018D01*
X53078502Y-65059320D01*
X53019537Y-64949006D01*
X52940185Y-64852315D01*
X52843494Y-64772963D01*
X52733180Y-64713998D01*
X52613482Y-64677688D01*
X52489000Y-64665428D01*
X51974750Y-64668500D01*
X51816000Y-64827250D01*
X51562000Y-64827250D01*
X51403250Y-64668500D01*
X50889000Y-64665428D01*
X50764518Y-64677688D01*
X50644820Y-64713998D01*
X50534506Y-64772963D01*
X50437815Y-64852315D01*
X50358463Y-64949006D01*
X50299498Y-65059320D01*
X50263188Y-65179018D01*
X50250928Y-65303500D01*
X49755000Y-65303500D01*
X49755000Y-56409372D01*
X50360000Y-56409372D01*
X50360000Y-56849628D01*
X50445890Y-57281425D01*
X50614369Y-57688169D01*
X50858962Y-58054229D01*
X51170271Y-58365538D01*
X51536331Y-58610131D01*
X51943075Y-58778610D01*
X52374872Y-58864500D01*
X52815128Y-58864500D01*
X53246925Y-58778610D01*
X53653669Y-58610131D01*
X54019729Y-58365538D01*
X54331038Y-58054229D01*
X54575631Y-57688169D01*
X54744110Y-57281425D01*
X54830000Y-56849628D01*
X54830000Y-56409372D01*
X54790455Y-56210565D01*
X79922540Y-56210565D01*
X79989520Y-56450656D01*
X80238548Y-56567756D01*
X80505635Y-56634023D01*
X80780517Y-56646910D01*
X81052633Y-56605922D01*
X81311523Y-56512636D01*
X81427480Y-56450656D01*
X81494460Y-56210565D01*
X81430960Y-56147065D01*
X95670540Y-56147065D01*
X95737520Y-56387156D01*
X95986548Y-56504256D01*
X96253635Y-56570523D01*
X96528517Y-56583410D01*
X96800633Y-56542422D01*
X97059523Y-56449136D01*
X97133916Y-56409372D01*
X109360000Y-56409372D01*
X109360000Y-56849628D01*
X109445890Y-57281425D01*
X109614369Y-57688169D01*
X109858962Y-58054229D01*
X110170271Y-58365538D01*
X110536331Y-58610131D01*
X110943075Y-58778610D01*
X111374872Y-58864500D01*
X111815128Y-58864500D01*
X112246925Y-58778610D01*
X112653669Y-58610131D01*
X113019729Y-58365538D01*
X113331038Y-58054229D01*
X113575631Y-57688169D01*
X113744110Y-57281425D01*
X113830000Y-56849628D01*
X113830000Y-56409372D01*
X113744110Y-55977575D01*
X113575631Y-55570831D01*
X113331038Y-55204771D01*
X113019729Y-54893462D01*
X112653669Y-54648869D01*
X112246925Y-54480390D01*
X111815128Y-54394500D01*
X111374872Y-54394500D01*
X110943075Y-54480390D01*
X110536331Y-54648869D01*
X110170271Y-54893462D01*
X109858962Y-55204771D01*
X109614369Y-55570831D01*
X109445890Y-55977575D01*
X109360000Y-56409372D01*
X97133916Y-56409372D01*
X97175480Y-56387156D01*
X97242460Y-56147065D01*
X96456500Y-55361105D01*
X95670540Y-56147065D01*
X81430960Y-56147065D01*
X80708500Y-55424605D01*
X79922540Y-56210565D01*
X54790455Y-56210565D01*
X54744110Y-55977575D01*
X54575631Y-55570831D01*
X54406039Y-55317017D01*
X79306590Y-55317017D01*
X79347578Y-55589133D01*
X79440864Y-55848023D01*
X79502844Y-55963980D01*
X79742935Y-56030960D01*
X80528895Y-55245000D01*
X80888105Y-55245000D01*
X81674065Y-56030960D01*
X81914156Y-55963980D01*
X82031256Y-55714952D01*
X82097523Y-55447865D01*
X82106634Y-55253517D01*
X95054590Y-55253517D01*
X95095578Y-55525633D01*
X95188864Y-55784523D01*
X95250844Y-55900480D01*
X95490935Y-55967460D01*
X96276895Y-55181500D01*
X96636105Y-55181500D01*
X97422065Y-55967460D01*
X97662156Y-55900480D01*
X97779256Y-55651452D01*
X97845523Y-55384365D01*
X97858410Y-55109483D01*
X97817422Y-54837367D01*
X97724136Y-54578477D01*
X97662156Y-54462520D01*
X97422065Y-54395540D01*
X96636105Y-55181500D01*
X96276895Y-55181500D01*
X95490935Y-54395540D01*
X95250844Y-54462520D01*
X95133744Y-54711548D01*
X95067477Y-54978635D01*
X95054590Y-55253517D01*
X82106634Y-55253517D01*
X82110410Y-55172983D01*
X82069422Y-54900867D01*
X81976136Y-54641977D01*
X81914156Y-54526020D01*
X81674065Y-54459040D01*
X80888105Y-55245000D01*
X80528895Y-55245000D01*
X79742935Y-54459040D01*
X79502844Y-54526020D01*
X79385744Y-54775048D01*
X79319477Y-55042135D01*
X79306590Y-55317017D01*
X54406039Y-55317017D01*
X54331038Y-55204771D01*
X54019729Y-54893462D01*
X53653669Y-54648869D01*
X53246925Y-54480390D01*
X52815128Y-54394500D01*
X52374872Y-54394500D01*
X51943075Y-54480390D01*
X51536331Y-54648869D01*
X51170271Y-54893462D01*
X50858962Y-55204771D01*
X50614369Y-55570831D01*
X50445890Y-55977575D01*
X50360000Y-56409372D01*
X49755000Y-56409372D01*
X49755000Y-54279435D01*
X79922540Y-54279435D01*
X80708500Y-55065395D01*
X81494460Y-54279435D01*
X81427480Y-54039344D01*
X81178452Y-53922244D01*
X80911365Y-53855977D01*
X80636483Y-53843090D01*
X80364367Y-53884078D01*
X80105477Y-53977364D01*
X79989520Y-54039344D01*
X79922540Y-54279435D01*
X49755000Y-54279435D01*
X49755000Y-53789500D01*
X96318691Y-53789500D01*
X96112367Y-53820578D01*
%TD*%
M02*
